<?xml version="1.0" encoding="UTF-8"?>
<svg id="Layer_1" xmlns="http://www.w3.org/2000/svg" version="1.1" viewBox="0 0 2200 1466">
  <!-- Generator: Adobe Illustrator 30.3.0, SVG Export Plug-In . SVG Version: 2.1.3 Build 182)  -->
  <defs>
    <style>
      .st0 {
        fill: #f1e696;
        stroke: #eedea2;
        stroke-miterlimit: 10;
        stroke-width: 11px;
      }
    </style>
  </defs>
  <path class="st0" d="M256.9,1425.61c6.22,5.91,13.53,10.92,20.39,16.03,3.87,2.89,7.94,5.37,12.28,7.49,13.33,6.49,27.24,11.91,41.24,16.87h1666.87c3.12-3.61,5.89-7.58,8.25-11.96,7.69-13.26,11.56-27.56,11.6-42.9,12.99-111.69,3.76-224.18-5.91-335.74-4.86-56.05-9.84-112.11-12.19-168.33-1.11-26.6-1.16-53.27-3.09-79.83-1.46-20.15-4-40.32-7.52-60.21-2.26-12.81-5.39-25.51-9.8-37.76-6.26-17.4-13.5-35-23.22-50.83-4.88-7.95-10.59-15.19-16.29-22.57-5.68-7.35-11.21-14.67-17.73-21.27-6.5-6.58-13.72-12.06-21.04-17.71-7.26-5.61-14.31-11.27-22.3-15.78-15.92-8.98-33.74-16.68-51.87-19.9-11.3-3.54-22.6-4.05-33.89-1.52-10.9.49-21.07,3.64-30.52,9.42-11.63-4.99-23.64-9.32-35.86-12.24-18.52-4.42-37.71-6.69-56.64-8.38-25.01-2.23-50.21-1.69-75.3-1.62-54.24.15-108.52.59-162.68,3.75-27.35,1.59-54.67,3.88-81.88,7.17-20.49,2.48-40.98,5.2-61.37,8.45-5.41.86-10.83,1.57-16.02,3.38-16.07,5.6-28.91,11.67-41.08,23.92-3.38,3.41-5.06,6.01-8.58,10.57-5.06,6.55-8.16,10.6-10.81,15.87-2.77-.27-5.58-.41-8.42-.42-67.73-7.79-135.68-13.68-203.74-17.62-3.59-1.57-7.36-2.82-11.32-3.76-9.03-2.41-18.98-3.48-28.21-4.1-6.29-.42-12.38.9-18.64,1.74-6.27.84-11.82,1.16-17.61,3.21-.19.07-.39.14-.59.21-7.62-.79-15.23-1.62-22.84-2.45.28-14.03-2.2-27.8-4.12-41.77-2.86-6.77-5.71-13.54-8.57-20.3-5.34-9.91-12.64-17.85-21.89-23.85-5.3-5.27-11.55-8.91-18.75-10.93-10.13-5.32-21.05-7.76-32.75-7.32-26.7-3.16-53.01,0-79.45,4.36-26.2,4.33-50.7,14.25-74.75,25.28-23.79,10.91-44.73,26.5-64.8,43.18-7.5,6.23-14.57,12.99-21.11,20.24-7.01,7.77-13.91,15.86-20.23,24.32-8.15-7.38-17.7-12.38-28.65-14.98-21.76-4.96-46.18-3.88-65.5,8.57l-17.2,13.29c-10.44,10.51-17.69,22.89-21.75,37.12-1.9,3.61-3.97,7.13-6.19,10.56-2.86,3.13-5.86,6.13-8.99,9-3.04,1.97-6.15,3.82-9.34,5.54-9.92,2.78-18.64,7.61-26.17,14.5-9.25,5.99-16.55,13.94-21.89,23.85-6.21,9.76-9.57,20.29-10.09,31.6-2.53,11.3-2.02,22.6,1.52,33.89,6.66,20.57,19.4,40.41,39.06,50.8,6.77,2.86,13.54,5.71,20.3,8.57,15.06,4.05,30.13,4.05,45.19,0,5.67-1.12,11.37-2.12,17.07-3.03,46.97-5.19,94.36-4.42,141.56-4.17l41.78.22c.41,7.01,1.1,14.03,1.75,20.93.74,7.94,1.29,16.03,2.26,24.04-.55.54-1.1,1.08-1.65,1.62-10.6-.73-21.25-2.48-31.63-3.35-18.36-1.55-36.77-2.56-55.19-3.02-18.09-.46-36.2-.4-54.28.18-9.21.3-18.41.73-27.61,1.3-3.83.24-7.68.44-11.49.86-8.3.92-17.3,1.62-25.46,3.54-.93.22-1.82.52-2.72.84-5.33,1.87-16.72,6.27-21.57,9.15-7.41,4.41-14.44,9.72-20.48,15.87-2.59,2.64-11.79,14.45-13.75,17.73-2.41,4.03-3.51,7.51-5.59,12.43-.41.98-3.69,7.7-4.7,11.36-1.23,4.47-2.14,11.05-2.72,16.88-3.42.72-6.85,1.43-10.26,2.17-18.86,4.12-37.71,8.23-56.57,12.35-6.77,2.86-13.54,5.71-20.3,8.57-9.91,5.34-17.85,12.64-23.85,21.89-5.27,5.3-8.91,11.55-10.93,18.75-5.32,10.13-7.76,21.05-7.32,32.75-3.84,48.8-7.65,97.59-11.44,146.4-1.89,24.4-3.78,48.8-5.67,73.2-.92,11.97-2.49,24.08-2.52,36.09-.06,22.32,5.39,48.06,18.71,66.48,4.12,5.7,10.7,15.27,17.03,21.28ZM605.57,1342.18c1.38,1.26,2.78,2.5,4.21,3.72-3.09-.13-6.18-.27-9.28-.42,1.7-1.09,3.38-2.19,5.06-3.3Z"/>
</svg>