<?xml version="1.0" encoding="UTF-8"?>
<svg xmlns="http://www.w3.org/2000/svg" version="1.1" viewBox="0 0 2200 1466">
  <!-- Generator: Adobe Illustrator 30.3.0, SVG Export Plug-In . SVG Version: 2.1.3 Build 182)  -->
  <defs>
    <style>
      .st0 {
        mix-blend-mode: multiply;
      }

      .st0, .st1 {
        opacity: .3;
      }

      .st2, .st1 {
        fill: #f2e589;
      }

      .st3, .st1 {
        isolation: isolate;
      }
    </style>
  </defs>
  <g class="st3">
    <g id="Layer_1">
      <g id="Layer_11" data-name="Layer_1">
        <path class="st1" d="M937.73,828.11c-.17-21.63-1.87-43.61-6.93-64.68-4.2-17.46-11.04-34.12-17.68-50.76-14.3-35.88-28.6-71.77-42.9-107.65-3.54-8.89-7.09-17.79-10.63-26.68-4.15-10.4-8.99-19.07-18.24-25.34-.09-2.91-.19-5.83-.31-8.74-.77-19.47-3.03-38.78-5.9-58.04-2.33-15.64-5.55-31.15-9.64-46.43-2.04-7.64-4.3-15.22-6.77-22.73-.59-1.8-1.18-3.61-1.82-5.4-1.63-4.57-3.61-8.7-6.04-12.44,2.87-2.88,4.71-6.82,4.54-10.7-.39-8.65-6.6-14.35-15-15-5.84-.46-11.33,1.36-16.87,2.88-2.05.56-4.17.85-6.34,1-.7-.22-1.38-.45-2.05-.67-8.56-2.9-17.66-2.36-26.02.61-5.48-.2-10.95-.54-16.42-1.15-7.83-.87-15.33,7.52-15,15,.19,4.31,1.77,7.74,4.29,10.25-2.76,5.77-4.21,12.11-3.82,18.68.8,13.33.35,26.63-1.1,39.88-9.16,57.53-34.56,110.78-52.39,165.87-.19.6-.36,1.21-.52,1.83-1.37,1.72-2.63,3.56-3.77,5.54-49.49,86.53-61.5,187.3-63.32,285.34-.48,25.9-.28,51.81,0,77.72.02,1.9.18,3.81.44,5.72-1.81,12.25-2.89,24.61-2.81,36.99.18,26.87,4.46,53.67,8.44,80.17,3.87,25.76,8.35,51.42,13.43,76.97,2.49,12.5,5.21,24.93,10.98,36.36.53,4.25,1.17,8.49,1.93,12.69,4.52,24.76,22.39,47.08,45.25,57.45,10.53,4.78,21.48,8.42,32.69,10.81,14.83,5.02,30.53,7.48,46.28,7.66,6.69,4.15,14.42,6.6,22.3,5.96,29.12-2.37,56.78-10.08,82.2-24.8,25.08-14.52,45.58-34.7,61.9-58.48,1.51-3.58,3.02-7.17,4.54-10.75.43-1.38.77-2.75,1.03-4.13,2.9-5.69,5.03-11.73,6.12-17.73,2.22-12.32,2.47-24.33,2.59-36.76.39-38.46.77-76.92,1.16-115.37.39-38.79.78-77.58,1.17-116.37.38-38.17,1.33-76.38,1.04-114.55l-.03-.03Z"/>
        <g class="st0">
          <path class="st2" d="M563.39,985.62c-12.18-15.66-31.98-18.73-50.35-21.75-20.4-3.35-40.88-6.25-61.39-8.77-5.71-.7-11.42-1.36-17.14-1.99,1.18-17.32,2.36-34.64,3.53-51.96.05-.7.53-5.96.13-3.55.07-.41.13-.76.19-1.06-.2.28-.46.48-.81.44.03,0,.43-.39.9-.87.35-1.61.46-.99.22-.23.62-.64,1.28-1.33,1.35-1.39.6-.53,1.21-1.04,1.84-1.53-1.45,1.11-1.51,1.16-.19.14,6.47-5.06,13.29-10.71,14.49-19.45,1.04-7.57-1.71-16.7-10.48-18.45-3.49-.7-4.51-1.34-8.56-3.88-3.49-2.19-6.92-4.31-10.69-6-9.34-4.17-18.88-6.11-29.01-7.28-19.49-2.25-39.24-1.2-58.76.11-19.44,1.3-38.79,2.43-58.29,2.58-19.87.15-39.35,1.63-58.53,7.15-9.5,2.74-18.83,6.01-28.32,8.79-9.87,2.89-19.11,5-28.31,5.38-7.83.33-15.37,6.67-15,15,.23,5.11,2.97,10.06,7.17,12.8-.27,1.94-.18,3.95.35,5.92,8.28,30.97,16.57,61.94,24.85,92.91-2.31,1.28-4.59,2.64-6.81,4.08-9.37,6.09-18.77,13.24-22.58,24.18-4.43,12.73,1.22,28.61,14.6,33.04,1.78.59,3.62.93,5.47,1.06,23.04,75.37,44.45,151.33,54.52,229.37,5.57,43.17,9.47,86.53,15.37,129.66,1.46,10.69,3.05,21.36,4.83,32,1.67,10,3.61,20.12,10.81,27.83,14.93,15.99,39.58,9.37,58.58,7.65,48.72-4.42,97.71-5.55,146.58-3.51,7.85.33,15.35-7.13,15-15-.02-.38-.06-.74-.1-1.11,5.05-1.33,9.57-4.83,10.47-10.24,8.3-49.95,16.62-100.02,20.34-150.56,1.83-24.9,1.79-49.83,2.63-74.77.83-24.47,2.8-48.92,6-73.19,3.45-26.16,8.74-53.44,15.12-79.58.61-2.48.55-5.11-.07-7.6.76-2.81,1.22-3.74,2.94-6.61.28-.46,2.43-3.43,2-2.99,1.26-1.49,2.67-2.88,4.13-4.17.55-.49,1.13-.95,1.71-1.42.18-.12.39-.27.67-.46,1.34-.92,2.66-1.88,3.99-2.81,3.47-2.44,6.94-4.95,10.15-7.74,15.24-13.26,16.73-34.41,4.47-50.18h0ZM181.53,1026.78c.02-.08.04-.15.06-.21-.09.65-.22,1.51-.06.21ZM243.01,910.02c-.79-.42-1.58-.82-2.38-1.21h4.04c-.56.39-1.11.8-1.66,1.21h0ZM370.27,963.04c-.13.02-.26.03-.39.05.13-.04.26-.09.39-.13v.08ZM402.68,944.52c.96-1.24,1.84-2.54,2.66-3.88-.08,1.2-.16,2.39-.24,3.59-.81.08-1.61.19-2.42.29ZM307.46,1447.26c.77.34,1.55.67,2.33,1.01-.86.08-1.71.17-2.57.25.08-.42.16-.84.24-1.26h0ZM242.33,1189.45c.41-.03.81-.09,1.21-.16.35,3.5.67,7.03.97,10.59-.71-3.48-1.44-6.96-2.18-10.44h0Z"/>
          <path class="st2" d="M438.36,896.52c.14-.2.24-.44.31-.66-.07.08-.15.15-.22.23-.03.13-.06.28-.09.43Z"/>
        </g>
      </g>
    </g>
  </g>
</svg>