<?xml version="1.0" encoding="UTF-8"?>
<svg id="Layer_1" data-name="Layer 1" xmlns="http://www.w3.org/2000/svg" viewBox="0 0 993.62 501.11">
  <defs>
    <style>
      .cls-1 {
        fill: #eaeaea;
      }
    </style>
  </defs>
  <polygon class="cls-1" points="132.33 417.68 155.07 376.2 121.58 350.36 155.07 324.51 121.58 298.67 155.07 272.83 121.58 246.98 155.07 221.14 66.61 195.48 155.07 169.45 121.58 143.6 144.32 133.38 175.82 42.39 273.08 134.49 365.9 88.36 407.83 134.49 468.94 70.39 542.58 134.49 604.74 30.25 677.34 134.49 744.71 101.01 812.09 134.49 901.14 63.86 862.73 143.59 896.22 169.44 862.73 195.28 896.22 221.13 862.73 246.97 896.22 272.82 862.73 298.66 896.22 324.51 862.73 350.35 927.01 399.97 852.42 397.52 808.48 459.65 744.72 385.3 686.44 433.52 609.97 385.3 542.59 418.79 475.21 385.3 414.79 470.85 340.46 385.3 250.5 453.12 203.86 385.41 132.33 417.68"/>
</svg>