<?xml version="1.0" encoding="UTF-8"?>
<svg id="Layer_1" xmlns="http://www.w3.org/2000/svg" version="1.1" viewBox="0 0 1775 948.08">
  <!-- Generator: Adobe Illustrator 30.3.0, SVG Export Plug-In . SVG Version: 2.1.3 Build 182)  -->
  <defs>
    <style>
      .st0 {
        fill: #f2e589;
      }
    </style>
  </defs>
  <polygon class="st0" points="152.04 802.05 197.32 719.46 130.63 667.99 197.32 616.52 130.63 565.05 197.32 513.58 130.63 462.12 197.32 410.65 21.15 359.55 197.32 307.71 130.63 256.24 175.92 235.9 238.65 54.68 432.33 238.11 617.18 146.24 700.69 238.11 822.37 110.45 969.04 238.11 1092.81 30.51 1237.4 238.11 1371.57 171.42 1505.76 238.11 1683.08 97.43 1606.6 256.23 1673.28 307.7 1606.6 359.17 1673.28 410.63 1606.6 462.1 1673.28 513.57 1606.6 565.04 1673.28 616.51 1606.6 667.98 1734.62 766.79 1586.07 761.91 1498.56 885.64 1371.59 737.58 1255.52 833.59 1103.23 737.58 969.05 804.27 834.88 737.58 714.55 907.95 566.52 737.58 387.37 872.63 294.48 737.78 152.04 802.05"/>
</svg>