<?xml version="1.0" encoding="UTF-8"?>
<svg id="Layer_1" xmlns="http://www.w3.org/2000/svg" version="1.1" viewBox="0 0 2200 1466">
  <!-- Generator: Adobe Illustrator 30.3.0, SVG Export Plug-In . SVG Version: 2.1.3 Build 182)  -->
  <defs>
    <style>
      .st0 {
        opacity: .3;
      }

      .st0, .st1 {
        isolation: isolate;
      }

      .st1 {
        fill: #f1e696;
        mix-blend-mode: multiply;
        stroke: #eedea2;
        stroke-miterlimit: 10;
        stroke-width: 9px;
      }
    </style>
  </defs>
  <g class="st0">
    <g id="Layer_11">
      <path class="st1" d="M1645.51,1316.19c-1.1-11.14-2.35-22.51-4.73-33.49-1.65-7.59-3.76-15.09-5.68-22.61-8.28-32.41-16.65-64.84-22.52-97.79-.66-3.69-1.28-7.39-1.86-11.09-2.44-22.83-3.16-45.8-1.23-68.67,2.15-11.47,5.02-22.76,8.3-34.01,4.33-14.88,8.96-29.75,11.3-45.11,2.35-15.41,5.12-31.21,4.93-46.91-.19-16.15-3-32.49-5.34-48.35-2.37-16.05-6.22-31.81-9.46-47.69-2.88-14.16-5.39-28.39-7.54-42.67-4.02-34.44-5.67-68.96-6.39-103.65-.4-19.71-.78-39.43-2.04-59.11-1.73-26.82-5.5-53.51-9.58-80.06-2.64-17.17-5.64-34.29-8.24-51.47-1.7-15.06-2.78-30.17-2.73-45.34.07-18.84,1.57-37.63,3.45-56.36,3.71-36.95,9.09-73.98,7.88-111.21-.59-18.16-3.26-36.11-5.84-54.08-1-6.95-2.34-13.82-4.01-20.63,1.71-5.61,2.71-11.42,2.98-17.42,1.93-8.6,2.27-17.19,1.05-25.79,5.27-10.77,7.67-22.33,7.2-34.66-1.13-8.42-2.26-16.84-3.39-25.25-4.51-16.09-12.66-30.07-24.43-41.92-18.52-17-41.49-27.99-67.18-27.82-98.65.63-197.37,1.27-295.93-3.7-48.8-2.46-97.4-7.1-146.11-10.91-48.42-3.79-97.14-6.28-145.65-2.53-62.64,4.84-123.45,18.59-184.16,33.97-16.09,4.51-30.07,12.66-41.92,24.43-11.77,11.85-19.92,25.83-24.43,41.92-20.5,98.84-36.07,198.87-45.69,299.36-8.86,92.51-11.81,185.67-6.96,278.5,3.15,60.33,10.75,119.95,18.8,179.79-1.13-8.42-2.26-16.84-3.39-25.25,4.68,34.89,8.96,69.92,8.88,105.18-.07,30.79-3.07,61.46-6.96,91.98-5.62,40.31-11.9,80.57-15.69,121.1-3.44,36.82-4.55,73.85-3.32,110.81.71,21.26,2.22,42.49,4.45,63.64-.49,13.08,2.23,25.28,8.18,36.6,3.83,11.78,10.38,21.97,19.64,30.57l19.23,14.85c14.82,8.59,30.8,12.92,47.95,12.97,68.58-8.48,137.34-15.45,206.23-20.88,68.89-5.43,137.9-9.32,206.96-11.68,69.06-2.36,138.18-3.18,207.27-2.46,34.55.36,69.09,1.1,103.63,2.23,17.1.56,34.2,1.21,51.29,1.96,8.88.39,17.75.8,26.62,1.24,7.76.38,15.68,1.31,23.44.72,8.99-.68,19.6-1.83,28.39-3.84,1.54-.35,2.97-.85,4.45-1.39,6.76-2.47,18.33-6.32,25.93-11.51,4.19-2.86,15.98-11.71,19.75-15.25.62-.58,1.23-1.15,1.82-1.76,2.48-2.56,7.88-10.04,8.27-10.63.63-.72,6.22-7.44,8.08-10.57,2.65-4.48,4.61-10.28,6.45-14.65,2.08-4.94,4.4-9.32,5.7-14.36.16-.63.25-1.26.37-1.9,1.61-8.14,2.85-18.29,3.57-26.55.26-2.96.25-5.88-.05-8.84h.01Z"/>
    </g>
  </g>
</svg>