<?xml version="1.0" encoding="UTF-8"?>
<svg id="Layer_1" xmlns="http://www.w3.org/2000/svg" version="1.1" viewBox="0 0 500 144.24">
  <!-- Generator: Adobe Illustrator 30.3.0, SVG Export Plug-In . SVG Version: 2.1.3 Build 182)  -->
  <defs>
    <style>
      .st0 {
        fill: #fff;
      }

      .st1 {
        fill: none;
        stroke: #231f20;
        stroke-width: 4px;
      }

      .st2 {
        fill: #f0dc99;
      }
    </style>
  </defs>
  <g>
    <path class="st2" d="M68.76,88.11c-2-1.97-2.99-2.96-4.99-4.96.09.09.24.13.47.13,2,1.99,2.99,2.98,4.99,4.95-.23,0-.38-.03-.47-.12Z"/>
    <path class="st2" d="M71.47,83.18c2,1.96,2.99,2.94,4.99,4.88-2.89.09-4.34.13-7.23.17-2-1.97-2.99-2.96-4.99-4.95,2.89-.02,4.34-.04,7.23-.1Z"/>
    <path class="st2" d="M86.38,72.32c2,1.9,2.99,2.85,4.99,4.73.12.11.15.33.13.72-2-1.88-2.99-2.83-4.99-4.73.02-.39,0-.61-.13-.72Z"/>
    <path class="st2" d="M86.51,73.04c2,1.9,2.99,2.85,4.99,4.73-.1,3.26-.16,4.9-.26,8.16-2-1.88-2.99-2.83-4.99-4.74.1-3.26.16-4.89.26-8.16Z"/>
    <path class="st2" d="M86.25,81.2c2,1.9,2.99,2.85,4.99,4.74-.05,1.14,0,1.45-.67,1.49-2-1.89-2.99-2.84-4.99-4.74.67-.03.62-.34.67-1.49Z"/>
    <path class="st2" d="M76.76,113.85c-2-1.94-2.99-2.91-4.99-4.88.12.11.28.13.52.12,2,1.96,2.99,2.93,4.99,4.87-.24,0-.41,0-.52-.12Z"/>
    <path class="st2" d="M72.86,109.08c2,1.96,2.99,2.93,4.99,4.86-.23,0-.34.01-.57.02-2-1.94-2.99-2.91-4.99-4.87.23,0,.34,0,.57-.01Z"/>
    <path class="st2" d="M76.32,108.99c2,1.94,2.99,2.91,4.99,4.83-.41.02-.62-.03-.72-.02-.16,0-2.33.14-2.74.15-2-1.94-2.99-2.91-4.99-4.86.41,0,2.58-.12,2.74-.13.1,0,.31.04.72.03Z"/>
    <path class="st2" d="M85.58,82.69c2,1.91,2.99,2.85,4.99,4.74-.72-.11-2.84,0-5.01.11-2.22.11-2.89.19-2.89.29,0,4.15-.05,10.32-.06,16.24,0,2.95,0,5.86.05,8.35-2-1.92-2.99-2.88-4.99-4.82-.05-2.49-.05-5.39-.05-8.35,0-5.91.06-12.09.06-16.24,0-.1.67-.17,2.89-.26,2.17-.09,4.29-.19,5.01-.07Z"/>
    <path class="st2" d="M76.84,108.97c2,1.94,2.99,2.9,4.99,4.82-.21,0-.31.01-.52.02-2-1.92-2.99-2.89-4.99-4.83.21,0,.31,0,.52-.02Z"/>
    <path class="st2" d="M77.67,107.6c2,1.94,2.99,2.9,4.99,4.82-.05,1.25-.21,1.36-.83,1.38-2-1.92-2.99-2.89-4.99-4.82.62-.02.77-.13.83-1.38Z"/>
    <path class="st2" d="M93.66,89.24c-2-1.88-2.99-2.82-4.99-4.71.09.09.24.09.47.1,2,1.89,2.99,2.83,4.99,4.71-.23,0-.38,0-.47-.1Z"/>
    <path class="st2" d="M97.3,74.69c2,1.86,2.99,2.79,4.99,4.64.17.16.24.49.27,1.15-2-1.85-2.99-2.77-4.99-4.63-.03-.66-.1-1-.27-1.16Z"/>
    <path class="st2" d="M90.13,84.62c2,1.89,2.99,2.83,4.99,4.7-.39,0-.59,0-.98.01-2-1.87-2.99-2.82-4.99-4.71.39,0,.59,0,.98,0Z"/>
    <path class="st2" d="M104,101.33c-2-1.84-2.99-2.76-4.99-4.62-.74-.69-1.3-1.77-1.3-3.45,0-.26-.15-17.42-.15-17.41,2,1.86,2.99,2.79,4.99,4.63,0,0,.15,17.16.15,17.41,0,1.68.56,2.76,1.3,3.44Z"/>
    <path class="st2" d="M98.86,110.46c-2-1.86-2.99-2.79-4.99-4.67,1.63,1.53,3.95,2.2,7.25,1.95,3.05-.23,4.6-1.36,6.25-3.16,2,1.83,2.99,2.74,4.99,4.55-1.65,1.82-3.2,2.95-6.25,3.21-3.3.28-5.62-.37-7.25-1.88Z"/>
    <path class="st2" d="M112,71.36c2,1.81,2.99,2.72,4.99,4.52.19.17.19.58.19,1.29.07,10.4.16,20.8.2,31.2-2-1.8-2.99-2.7-4.99-4.51-.04-10.4-.13-20.8-.2-31.2,0-.72,0-1.12-.19-1.29Z"/>
    <path class="st2" d="M112.62,110.98c-2-1.81-2.99-2.72-4.99-4.55.48.44,1.6.37,3.21.22,2,1.82,2.99,2.72,4.99,4.52-1.61.16-2.73.24-3.21-.19Z"/>
    <path class="st2" d="M112.39,103.86c2,1.81,2.99,2.72,4.99,4.51v1.3c-2-1.8-2.99-2.7-4.99-4.51,0-.52,0-.78,0-1.3Z"/>
    <path class="st2" d="M111.45,106.59c2,1.82,2.99,2.72,4.99,4.52-.25.03-.37.04-.62.06-2-1.8-2.99-2.71-4.99-4.52.25-.02.37-.03.62-.06Z"/>
    <path class="st2" d="M112.39,105.15c2,1.81,2.99,2.72,4.99,4.51,0,1.25-.21,1.37-.93,1.44-2-1.8-2.99-2.7-4.99-4.52.72-.07.93-.19.93-1.44Z"/>
    <path class="st2" d="M153.61,63.74c2,1.7,2.99,2.55,4.99,4.24.14.11.17.29.17.58-2-1.69-2.99-2.54-4.99-4.23,0-.29-.04-.47-.17-.58Z"/>
    <path class="st2" d="M130.24,92.13c2,1.76,2.99,2.64,4.99,4.38-.69-.61-2.05-.59-4.05-.34-.07,0-.13.02-.18.02-.13.02-.2.02-.24-.02-2-1.76-2.99-2.64-4.99-4.41.04.04.11.03.24.02.05,0,.11-.01.18-.02,2-.23,3.36-.24,4.05.37Z"/>
    <path class="st2" d="M137.67,83.11c2,1.74,2.99,2.61,4.99,4.33.17.15.19.47.19,1.01-2-1.73-2.99-2.59-4.99-4.33,0-.54-.02-.87-.19-1.01Z"/>
    <path class="st2" d="M137.86,84.13c2,1.74,2.99,2.6,4.99,4.33,0,1.97,0,2.96,0,4.93-2-1.73-2.99-2.59-4.99-4.33,0-1.97,0-2.96,0-4.93Z"/>
    <path class="st2" d="M153.78,64.32c2,1.7,2.99,2.55,4.99,4.23-.04,2.79-.06,4.18-.11,6.96-2-1.69-2.99-2.54-4.99-4.24.04-2.79.06-4.18.11-6.96Z"/>
    <path class="st2" d="M126.7,100.37c-2-1.77-2.99-2.66-4.99-4.44-1.32-1.18-1.68-3.53-1.68-7.47,0-7.05,2.33-11.66,5.79-12.06,2.07-.24,23.35-3.5,26.25-3.93,1.19-.18,1.6-.81,1.6-1.18,2,1.7,2.99,2.55,4.99,4.24,0,.36-.41,1-1.6,1.19-2.89.45-24.18,3.85-26.25,4.1-3.46.43-5.79,5.04-5.79,12.1,0,3.94.36,6.29,1.68,7.46Z"/>
    <path class="st2" d="M149.21,76.28c2,1.71,2.99,2.56,4.99,4.26.11.09.13.35.13,1-2-1.7-2.99-2.55-4.99-4.26,0-.65-.02-.92-.13-1.01Z"/>
    <path class="st2" d="M164.31,63.06c2,1.68,2.99,2.51,4.99,4.18.12.1.16.32.16.71-2-1.67-2.99-2.5-4.99-4.18,0-.39-.04-.6-.16-.71Z"/>
    <path class="st2" d="M164.48,63.77c2,1.68,2.99,2.51,4.99,4.18.06,2.25.09,3.38.15,5.63-2-1.67-2.99-2.5-4.99-4.18l-.15-5.63Z"/>
    <path class="st2" d="M164.63,69.4c2,1.68,2.99,2.51,4.99,4.18,0,.15,0,.22,0,.36-2-1.67-2.99-2.5-4.99-4.18,0-.15,0-.22,0-.36Z"/>
    <path class="st2" d="M163.91,70.76c2,1.68,2.99,2.51,4.99,4.18-.31.07-.46.11-.77.18-2-1.67-2.99-2.51-4.99-4.19.31-.07.46-.11.77-.18Z"/>
    <path class="st2" d="M164.63,69.76c2,1.68,2.99,2.51,4.99,4.18,0,.83-.15.86-.72,1-2-1.67-2.99-2.5-4.99-4.18.57-.14.72-.17.72-1Z"/>
    <path class="st2" d="M123.27,107.68c-2-1.78-2.99-2.67-4.99-4.47,1.77,1.59,4.3,2.04,7.75,1.64,5.84-.68,11.83-3.03,11.84-15.79,2,1.74,2.99,2.6,4.99,4.33,0,12.76-6,15.15-11.84,15.87-3.45.43-5.97,0-7.75-1.58Z"/>
    <path class="st2" d="M149.33,77.28c2,1.71,2.99,2.56,4.99,4.26.04,5.03.06,7.55.1,12.59-2-1.7-2.99-2.55-4.99-4.26-.04-5.04-.06-7.55-.1-12.59Z"/>
    <path class="st2" d="M156.01,101.26c-2-1.69-2.99-2.54-4.99-4.25-1.72-1.47-1.59-4.93-1.59-7.14,2,1.71,2.99,2.56,4.99,4.26,0,2.21-.14,5.67,1.59,7.13Z"/>
    <path class="st2" d="M163.13,70.94c2,1.68,2.99,2.52,4.99,4.19-.04,5.42-.06,8.13-.11,13.56-2-1.67-2.99-2.51-4.99-4.19.04-5.42.06-8.13.11-13.55Z"/>
    <path class="st2" d="M148.68,106.29c-2-1.71-2.99-2.57-4.99-4.29,1.92,1.66,4.93,1.86,9.56,1.15,6.72-1.02,9.66-3.49,9.77-18.65,2,1.68,2.99,2.52,4.99,4.19-.11,15.16-3.05,17.65-9.77,18.7-4.63.73-7.64.55-9.56-1.1Z"/>
    <path class="st2" d="M174.03,71.85c2,1.66,2.99,2.48,4.99,4.13-.67.12-.67.17-.67,1.05-2-1.65-2.99-2.48-4.99-4.14,0-.88,0-.93.67-1.05Z"/>
    <path class="st2" d="M178.17,71.13c2,1.65,2.99,2.47,4.99,4.12-1.65.3-2.48.45-4.14.74-2-1.65-2.99-2.48-4.99-4.13,1.65-.29,2.48-.43,4.14-.72Z"/>
    <path class="st2" d="M173.36,72.91c2,1.66,2.99,2.49,4.99,4.14,0,2.43,0,3.64,0,6.07-2-1.65-2.99-2.48-4.99-4.14,0-2.43,0-3.64,0-6.07Z"/>
    <path class="st2" d="M178.54,83.89c-2-1.65-2.99-2.48-4.99-4.14-.12-.1-.2-.32-.2-.78,2,1.66,2.99,2.49,4.99,4.14,0,.45.08.68.2.78Z"/>
    <path class="st2" d="M185.1,71.19c2,1.64,2.99,2.46,4.99,4.09-1.28-1.04-3.93-.58-6.94-.03-2-1.64-2.99-2.46-4.99-4.12,3.01-.53,5.66-.99,6.94.06Z"/>
    <path class="st2" d="M198.66,68.67c-2-1.62-2.99-2.43-4.99-4.06.18.15.41.17.62.13,2,1.62,2.99,2.44,4.99,4.05-.21.04-.44.02-.62-.13Z"/>
    <path class="st2" d="M172.15,102.05c-2-1.66-2.99-2.49-4.99-4.17.17.14.43.17.82.11,2,1.67,2.99,2.5,4.99,4.16-.39.07-.65.04-.82-.1Z"/>
    <path class="st2" d="M168.13,97.97c2,1.67,2.99,2.5,4.99,4.16-.06.01-.09.02-.15.03-2-1.66-2.99-2.49-4.99-4.16.06-.01.09-.02.15-.03Z"/>
    <path class="st2" d="M201.43,58.16c2,1.62,2.99,2.42,4.99,4.03.12.1.19.27.19.56-2-1.61-2.99-2.42-4.99-4.03,0-.29-.07-.46-.19-.56Z"/>
    <path class="st2" d="M181.56,85.3c2,1.64,2.99,2.46,4.99,4.1-1.8-1.47-4.63-1.06-7.94-.47-.31.06-.26.41-.21.76-2-1.65-2.99-2.48-4.99-4.14-.05-.35-.1-.71.21-.76,3.31-.57,6.14-.97,7.94.51Z"/>
    <path class="st2" d="M173.41,85.55c2,1.66,2.99,2.49,4.99,4.14,0,3.92,0,5.88,0,9.8-2-1.65-2.99-2.48-4.99-4.14,0-3.92,0-5.88,0-9.8Z"/>
    <path class="st2" d="M172.27,97.16c2,1.66,2.99,2.49,4.99,4.14-1.65.33-2.48.5-4.14.83-2-1.66-2.99-2.49-4.99-4.16,1.65-.32,2.48-.48,4.14-.81Z"/>
    <path class="st2" d="M201.63,58.72c2,1.62,2.99,2.42,4.99,4.03,0,1.43,0,2.15,0,3.58-2-1.61-2.99-2.42-4.99-4.03,0-1.43,0-2.15,0-3.58Z"/>
    <path class="st2" d="M200.95,63.57c2,1.62,2.99,2.42,4.99,4.03-2.67.48-4,.72-6.66,1.2-2-1.62-2.99-2.43-4.99-4.05,2.67-.46,4-.7,6.66-1.18Z"/>
    <path class="st2" d="M188.15,60.6c2,1.63,2.99,2.45,4.99,4.08,1.65,1.35,2.46,4.07,2.46,9.03,0,5.03-1.24,8.07-4.09,9.9-.93.59-1.34,1.03-1.34,1.39,0,.21.12.42.39.63-2-1.63-2.99-2.45-4.99-4.09-.27-.22-.39-.42-.39-.64,0-.36.41-.8,1.34-1.39,2.84-1.82,4.08-4.86,4.09-9.88,0-4.96-.81-7.69-2.46-9.04Z"/>
    <path class="st2" d="M173.4,95.35c2,1.66,2.99,2.49,4.99,4.14,0,1.45-.15,1.63-1.14,1.81-2-1.65-2.99-2.48-4.99-4.14.98-.17,1.13-.35,1.14-1.8Z"/>
    <path class="st2" d="M201.62,62.3c2,1.62,2.99,2.42,4.99,4.03,0,.62-.11,1.16-.67,1.27-2-1.61-2.99-2.42-4.99-4.03.57-.11.67-.65.67-1.27Z"/>
    <path class="st2" d="M201.28,65.52c2,1.62,2.99,2.42,4.99,4.03.24.19.28.59.34,1.18-2-1.61-2.99-2.42-4.99-4.03-.06-.59-.1-.99-.34-1.18Z"/>
    <path class="st2" d="M198.35,89.56c-2-1.62-2.99-2.43-4.99-4.06.09.07.24.07.46.03,2,1.63,2.99,2.44,4.99,4.06-.22.04-.37.05-.46-.03Z"/>
    <path class="st2" d="M200.43,84.05c2,1.62,2.99,2.42,4.99,4.03-2.65.6-3.97.9-6.61,1.5-2-1.62-2.99-2.43-4.99-4.06,2.65-.59,3.97-.88,6.61-1.48Z"/>
    <path class="st2" d="M186.77,82.31c2,1.64,2.99,2.45,4.99,4.08,1.3,1.06,2.23,3.89,2.23,6.76,0,4.5.58,6.6,1.31,7.19-2-1.62-2.99-2.44-4.99-4.07-.73-.59-1.31-2.69-1.31-7.2,0-2.88-.94-5.71-2.23-6.77Z"/>
    <path class="st2" d="M201.62,66.71c2,1.62,2.99,2.42,4.99,4.03,0,6.58,0,9.87,0,16.44-2-1.61-2.99-2.42-4.99-4.03,0-6.58,0-9.87,0-16.44Z"/>
    <path class="st2" d="M201.62,83.15c2,1.62,2.99,2.42,4.99,4.03,0,.73-.11.64-1.19.91-2-1.61-2.99-2.42-4.99-4.03,1.08-.26,1.19-.18,1.19-.91Z"/>
    <path class="st2" d="M190.8,105.16c-2-1.63-2.99-2.45-4.99-4.08.98.8,2.13.7,3.09.52,2,1.63,2.99,2.45,4.99,4.07-.96.18-2.11.29-3.09-.51Z"/>
    <path class="st2" d="M194.22,100.6c2,1.62,2.99,2.44,4.99,4.05-2.13.41-3.19.62-5.32,1.02-2-1.63-2.99-2.44-4.99-4.07,2.13-.4,3.19-.6,5.32-1Z"/>
    <path class="st2" d="M201.35,86.57c2,1.62,2.99,2.42,4.99,4.03.1.08.16.23.16.49,0,9.85-.26,12.2-7.29,13.56-2-1.62-2.99-2.43-4.99-4.05,7.03-1.33,7.29-3.68,7.29-13.54,0-.25-.06-.4-.16-.49Z"/>
    <path class="st2" d="M219.05,64.55c2,1.6,2.99,2.39,4.99,3.99-.71-.57-1.65-.62-3.53-.44-2-1.6-2.99-2.39-4.99-3.99,1.88-.18,2.82-.13,3.53.44Z"/>
    <path class="st2" d="M215.19,84.33c-2-1.6-2.99-2.4-4.99-4.01-1.1-.89-1.4-2.94-1.4-6.68,0-6.22,1.09-8.51,5.02-9.3.52-.1,1.09-.17,1.71-.24,2,1.6,2.99,2.4,4.99,3.99-.62.07-1.19.14-1.71.24-3.93.8-5.01,3.09-5.02,9.32,0,3.74.3,5.79,1.4,6.68Z"/>
    <path class="st2" d="M222.15,54.94c2,1.59,2.99,2.39,4.99,3.98,1.93,1.54,2.9,4.17,3.49,9.32-2-1.59-2.99-2.38-4.99-3.97-.59-5.15-1.57-7.78-3.49-9.32Z"/>
    <path class="st2" d="M212.63,92.52c-2-1.6-2.99-2.41-4.99-4.01,1.63,1.32,3.9,1.54,6.89,1,2,1.6,2.99,2.4,4.99,4-3,.55-5.26.33-6.89-.98Z"/>
    <path class="st2" d="M214.68,89.48c2,1.6,2.99,2.4,4.99,4-.06.01-.09.02-.15.03-2-1.6-2.99-2.4-4.99-4,.06-.01.09-.02.15-.03Z"/>
    <path class="st2" d="M225.65,64.26c2,1.59,2.99,2.39,4.99,3.97.15,1.42.2,2.86.2,4.37,0,5.81-1.14,11.96-3.05,14.84-2-1.59-2.99-2.39-4.99-3.98,1.91-2.88,3.05-9.03,3.05-14.84,0-1.51-.05-2.95-.2-4.37Z"/>
    <path class="st2" d="M222.8,83.46c2,1.59,2.99,2.39,4.99,3.98-1.96,3.26-4.65,5.32-8.11,6.03-2-1.6-2.99-2.4-4.99-4,3.46-.7,6.15-2.75,8.11-6.01Z"/>
    <path class="st2" d="M246.26,50.14c2,1.58,2.99,2.37,4.99,3.95,1.04.82,1.37,1.67,1.39,1.67-2-1.58-2.99-2.37-4.99-3.95-.02,0-.35-.85-1.39-1.67Z"/>
    <path class="st2" d="M243.21,57.9c2,1.58,2.99,2.37,4.99,3.95-.76-.6-2.25-.47-4.8.07-3.1.65-4.65,2.59-4.65,4.35,0,1.03.48,2.01,1.36,2.71-2-1.58-2.99-2.38-4.99-3.96-.88-.7-1.36-1.68-1.36-2.71,0-1.76,1.55-3.7,4.65-4.35,2.56-.54,4.05-.67,4.8-.07Z"/>
    <path class="st2" d="M252.92,45.73c2,1.58,2.99,2.37,4.99,3.95.09.07.11.22.11.48-2-1.58-2.99-2.37-4.99-3.95,0-.27-.02-.42-.11-.48Z"/>
    <path class="st2" d="M249.14,64.67c-2-1.58-2.99-2.37-4.99-3.95.38.3,1.27.21,3.5-.14,2,1.58,2.99,2.37,4.99,3.95-2.23.35-3.12.44-3.5.14Z"/>
    <path class="st2" d="M235.28,73.77c2,1.59,2.99,2.38,4.99,3.96.35.28.49.8.49,1.66,0,1.04.23,1.68.69,2.04-2-1.58-2.99-2.37-4.99-3.96-.45-.36-.69-1-.69-2.04,0-.86-.14-1.38-.49-1.66Z"/>
    <path class="st2" d="M253.03,46.21c2,1.58,2.99,2.37,4.99,3.95,0,4.96,0,7.44,0,12.4-2-1.58-2.99-2.37-4.99-3.95,0-4.96,0-7.44,0-12.4Z"/>
    <path class="st2" d="M243.22,70.58c2,1.58,2.99,2.37,4.99,3.95-.81-.65-2.25-.6-4.51-.12-2.03.43-5.97,1.09-8.6-.99-2-1.59-2.99-2.38-4.99-3.97,2.63,2.09,6.57,1.43,8.6,1,2.25-.47,3.69-.52,4.51.13Z"/>
    <path class="st2" d="M233,92.55c-2-1.59-2.99-2.38-4.99-3.97.07.06.2.04.41,0,2,1.59,2.99,2.38,4.99,3.97-.21.04-.34.06-.41,0Z"/>
    <path class="st2" d="M252.62,59.79c2,1.58,2.99,2.37,4.99,3.95-.02,0-4.36.71-4.96.79-2-1.58-2.99-2.37-4.99-3.95.61-.08,4.94-.79,4.96-.79Z"/>
    <path class="st2" d="M252.62,59.79c2,1.58,2.99,2.37,4.99,3.95,0,0,0,0,0,0-2-1.58-2.99-2.37-4.99-3.95,0,0,0,0,0,0Z"/>
    <path class="st2" d="M252.62,59.79s0,0,0,0c0,0,0,0,0,0Z"/>
    <path class="st2" d="M253.03,58.61c2,1.58,2.99,2.37,4.99,3.95,0,.93-.05,1.1-.41,1.18-2-1.58-2.99-2.37-4.99-3.95.36-.08.41-.25.41-1.18Z"/>
    <path class="st2" d="M230.13,88.22c2,1.59,2.99,2.38,4.99,3.97-.68.14-1.02.21-1.71.36-2-1.59-2.99-2.38-4.99-3.97.68-.14,1.02-.21,1.71-.35Z"/>
    <path class="st2" d="M251.74,65.84c2,1.58,2.99,2.37,4.99,3.95,1.38,1.09,1.86,3.08,1.86,6.14,0,4.67-3.26,10.76-12.82,12.78-5.27,1.11-7.08-1.62-7.59-1.51-.21.04-.26.32-.26,2.75,0,1.61-.78,1.82-2.79,2.25-2-1.59-2.99-2.38-4.99-3.97,2.01-.42,2.79-.63,2.79-2.24,0-2.44.05-2.71.26-2.75.51-.11,2.32,2.63,7.59,1.52,9.56-2.01,12.82-8.11,12.82-12.77,0-3.06-.48-5.05-1.86-6.14Z"/>
    <path class="st2" d="M283.62,48.66c-2-1.59-2.99-2.38-4.99-3.96.07.06.22.05.5,0,.14-.03.3-.07.51-.12,2,1.58,2.99,2.38,4.99,3.96-.21.05-.37.09-.51.12-.28.06-.43.06-.5,0Z"/>
    <path class="st2" d="M291.11,42.28c2,1.59,2.99,2.39,4.99,3.98-4.59.9-6.88,1.35-11.47,2.27-2-1.59-2.99-2.38-4.99-3.96,4.59-.92,6.88-1.38,11.47-2.29Z"/>
    <path class="st2" d="M281.53,55.2c2,1.59,2.99,2.38,4.99,3.97-.7-.56-1.54-.8-2.46-.61-.36.08-1.75.31-4.65.92-.21.04-.72.36-.72,1.04-2-1.58-2.99-2.38-4.99-3.96,0-.67.52-.99.72-1.04,2.89-.61,4.29-.85,4.65-.93.92-.19,1.76.05,2.46.61Z"/>
    <path class="st2" d="M292.37,42.25c2,1.59,2.99,2.39,4.99,3.99-.2-.16-.58-.11-1.26.03-2-1.59-2.99-2.39-4.99-3.98.68-.14,1.05-.19,1.26-.03Z"/>
    <path class="st2" d="M273.69,56.56c2,1.58,2.99,2.37,4.99,3.96.02,5.66.03,8.49.05,14.15-2-1.58-2.99-2.38-4.99-3.96-.02-5.66-.03-8.49-.05-14.15Z"/>
    <path class="st2" d="M278.96,75.3c-2-1.58-2.99-2.38-4.99-3.96-.16-.12-.23-.33-.23-.64,2,1.58,2.99,2.37,4.99,3.96,0,.31.08.51.23.64Z"/>
    <path class="st2" d="M272.83,83.85c-2-1.58-2.99-2.37-4.99-3.95.04.03.1.02.21,0,2,1.58,2.99,2.37,4.99,3.95-.11.02-.18.03-.21,0Z"/>
    <path class="st2" d="M268.26,79.85c2,1.58,2.99,2.37,4.99,3.95-.08.02-.12.03-.21.04-2-1.58-2.99-2.37-4.99-3.95.08-.02.12-.03.21-.04Z"/>
    <path class="st2" d="M312.79,30.81c2,1.61,2.99,2.42,4.99,4.04.07.06.07.21.07.55-2-1.62-2.99-2.43-4.99-4.04,0-.33,0-.49-.07-.55Z"/>
    <path class="st2" d="M312.86,31.35c2,1.61,2.99,2.42,4.99,4.04,0,3.26,0,4.89,0,8.14-2-1.62-2.99-2.43-4.99-4.04,0-3.26,0-4.89,0-8.14Z"/>
    <path class="st2" d="M302.47,51.62c-2-1.6-2.99-2.4-4.99-4-.21-.17-.33-1.11-.33-2.12,0-1.25.16-2.57.52-2.65,5.99-1.17,9.51-1.76,12.04-2.27,3.15-.63,3.15-.73,3.15-1.09,2,1.61,2.99,2.42,4.99,4.04,0,.36,0,.46-3.15,1.08-2.53.49-6.04,1.08-12.04,2.24-.36.07-.52,1.4-.52,2.65,0,1.01.12,1.96.33,2.12Z"/>
    <path class="st2" d="M302.51,65.69c-2-1.6-2.99-2.4-4.99-4-.2-.16-.27-.75-.27-1.43,0-.99.16-4.18.36-4.23,2,1.6,2.99,2.4,4.99,4-.21.04-.36,3.24-.36,4.22,0,.68.07,1.28.27,1.43Z"/>
    <path class="st2" d="M311.52,44.85c2,1.61,2.99,2.42,4.99,4.03.07.06.02.22,0,.56-2-1.62-2.99-2.42-4.99-4.03.03-.34.08-.51,0-.56Z"/>
    <path class="st2" d="M286.71,47.94c2,1.59,2.99,2.38,4.99,3.97,2.8,2.24,3.57,6.95,3.57,13.86,0,8.56-1.09,13.69-12.92,16.16-1.96.41-4.86.97-9.09,1.86-2-1.58-2.99-2.37-4.99-3.95,4.24-.9,7.13-1.46,9.09-1.87,11.83-2.49,12.92-7.62,12.92-16.18,0-6.91-.76-11.62-3.57-13.86Z"/>
    <path class="st2" d="M309.96,53.14c2,1.61,2.99,2.41,4.99,4.03-4.94,1.13-7.41,1.7-12.35,2.87-2-1.6-2.99-2.4-4.99-4,4.94-1.17,7.41-1.76,12.35-2.9Z"/>
    <path class="st2" d="M311.52,45.41c2,1.61,2.99,2.42,4.99,4.03-.15,2.64-.22,3.96-.36,6.61-2-1.62-2.99-2.42-4.99-4.03.15-2.64.22-3.96.36-6.61Z"/>
    <path class="st2" d="M297.82,77.21c-2-1.6-2.99-2.39-4.99-3.99.08.06.23.04.54-.03.09-.02.2-.04.32-.07,2,1.59,2.99,2.39,4.99,3.99-.12.02-.23.05-.32.07-.31.06-.46.09-.54.02Z"/>
    <path class="st2" d="M311.15,52.02c2,1.61,2.99,2.42,4.99,4.03-.05.95.1.81-1.19,1.11-2-1.61-2.99-2.42-4.99-4.03,1.29-.31,1.13-.17,1.19-1.12Z"/>
    <path class="st2" d="M311.26,59.01c2,1.61,2.99,2.42,4.99,4.03.07.06.07.2.1.49-2-1.62-2.99-2.42-4.99-4.03-.02-.29-.03-.43-.1-.49Z"/>
    <path class="st2" d="M311.36,59.5c2,1.61,2.99,2.42,4.99,4.03.23,3.71.34,5.57.57,9.28-2-1.62-2.99-2.42-4.99-4.03-.23-3.71-.34-5.57-.57-9.28Z"/>
    <path class="st2" d="M311.41,69.71c2,1.61,2.99,2.42,4.99,4.03-7.09,1.32-10.63,1.99-17.72,3.38-2-1.6-2.99-2.39-4.99-3.99,7.09-1.4,10.63-2.09,17.72-3.42Z"/>
    <path class="st2" d="M311.66,69.66c2,1.61,2.99,2.42,4.99,4.03-.1.02-.15.03-.26.05-2-1.62-2.99-2.42-4.99-4.03.1-.02.15-.03.26-.05Z"/>
    <path class="st2" d="M311.92,68.77c2,1.61,2.99,2.42,4.99,4.03.05.77.05.82-.26.88-2-1.62-2.99-2.42-4.99-4.03.31-.06.31-.11.26-.88Z"/>
    <path class="st2" d="M322.38,32.23c2,1.62,2.99,2.44,4.99,4.07.17.14.25.47.25,1.12-2-1.63-2.99-2.45-4.99-4.07,0-.65-.07-.98-.25-1.12Z"/>
    <path class="st2" d="M319.86,47.16c-2-1.62-2.99-2.43-4.99-4.04.1.08.26.06.52.03,2,1.61,2.99,2.42,4.99,4.04-.26.03-.42.05-.52-.03Z"/>
    <path class="st2" d="M316.58,42.97c2,1.62,2.99,2.43,4.99,4.05-.48.07-.71.11-1.19.18-2-1.62-2.99-2.43-4.99-4.04.48-.07.71-.11,1.19-.18Z"/>
    <path class="st2" d="M322.63,33.35c2,1.62,2.99,2.44,4.99,4.07v22.62c-2-1.63-3-2.45-5-4.07,0-9.05,0-13.57,0-22.62Z"/>
    <path class="st2" d="M327.63,60.08c-2-1.63-2.99-2.45-4.99-4.07-.01-.01-.02-.02-.02-.04,2,1.62,2.99,2.44,4.99,4.07,0,.01,0,.03.02.04Z"/>
    <path class="st2" d="M336.08,53.56c2,1.64,2.99,2.47,4.99,4.12.18.15.15.59.18,1.34-2-1.65-2.99-2.48-4.99-4.12-.03-.75,0-1.19-.18-1.34Z"/>
    <path class="st2" d="M336.26,54.89c2,1.65,2.99,2.47,4.99,4.12.1,3.18.15,4.77.25,7.94-2-1.65-2.99-2.48-4.99-4.13-.1-3.18-.15-4.76-.25-7.94Z"/>
    <path class="st2" d="M336.52,62.84c2,1.65,2.99,2.47,4.99,4.13,0,.08,0,.13,0,.21-2-1.65-2.99-2.48-4.99-4.12,0-.08,0-.13,0-.21Z"/>
    <path class="st2" d="M321.37,72.02c-2-1.62-2.99-2.43-4.99-4.05.26.21.71.16,1.38.03,3.41-.66,13.38-3.31,17.83-4.11.72-.13.93-.22.93-.84,2,1.65,2.99,2.47,4.99,4.12,0,.62-.21.71-.93.84-4.44.78-14.42,3.4-17.83,4.05-.67.13-1.12.18-1.38-.03Z"/>
    <path class="st2" d="M375.59,21.99c2,1.73,2.99,2.6,4.99,4.34.04.04.05.11.05.25-2-1.74-2.99-2.61-4.99-4.34,0-.14-.01-.22-.05-.25Z"/>
    <path class="st2" d="M361.86,27.67c2,1.7,2.99,2.55,4.99,4.25,2.62,2.24,6.51,16.29,7.94,17.53-2-1.73-2.99-2.59-4.99-4.3-1.43-1.23-5.32-15.25-7.94-17.48Z"/>
    <path class="st2" d="M355.47,66.78c-2-1.68-2.99-2.52-4.99-4.19.5.42,1.86.37,4.58-.07,2,1.68,2.99,2.52,4.99,4.22-2.72.42-4.08.47-4.58.05Z"/>
    <path class="st2" d="M356.05,62.36c2,1.68,2.99,2.53,4.99,4.22-.39.06-.59.09-.98.15-2-1.69-2.99-2.53-4.99-4.22.39-.06.59-.1.98-.16Z"/>
    <path class="st2" d="M356.78,36.88c2,1.68,2.99,2.53,4.99,4.22-.26.4-.27,17.57-.27,24.78,0,.57.05.61-.46.69-2-1.69-2.99-2.54-4.99-4.22.51-.08.46-.13.46-.7,0-7.21,0-24.38.27-24.78Z"/>
    <path class="st2" d="M375.64,22.24c2,1.73,2.99,2.6,4.99,4.34-.23,11.39-.46,22.78-.68,34.17-2-1.74-2.99-2.61-4.99-4.33.23-11.39.46-22.78.68-34.17Z"/>
    <path class="st2" d="M372.49,62.27c-2-1.72-2.99-2.58-4.99-4.29.66.56,1.56.67,2.49.53,2.38-.34,4.96-1.64,4.96-2.1,2,1.73,2.99,2.59,4.99,4.33,0,.47-2.58,1.74-4.96,2.07-.94.13-1.83.02-2.49-.54Z"/>
    <path class="st2" d="M392.7,32.14c2,1.78,2.99,2.67,4.99,4.46-.71-.64-1.65-.78-3.53-.77-2-1.78-2.99-2.67-4.99-4.43,1.88-.02,2.82.12,3.53.75Z"/>
    <path class="st2" d="M388.84,51.59c-2-1.76-2.99-2.64-4.99-4.39-1.1-.97-1.4-3.04-1.4-6.78,0-6.22,1.09-8.45,5.01-8.93.52-.06,1.09-.08,1.71-.1,2,1.77,2.99,2.65,4.99,4.43-.62.02-1.19.03-1.71.09-3.93.45-5.01,2.67-5.01,8.89,0,3.74.3,5.82,1.4,6.79Z"/>
    <path class="st2" d="M395.8,22.81c2,1.78,2.99,2.68,4.99,4.48,1.93,1.74,2.9,4.48,3.49,9.7-2-1.81-2.99-2.71-4.99-4.51-.59-5.21-1.57-7.95-3.49-9.67Z"/>
    <path class="st2" d="M386.28,59.58c-2-1.76-2.99-2.63-4.99-4.38,1.63,1.43,3.89,1.81,6.89,1.51,2,1.76,2.99,2.65,4.99,4.42-3,.28-5.26-.12-6.89-1.56Z"/>
    <path class="st2" d="M388.34,56.69c2,1.76,2.99,2.65,4.99,4.42-.06,0-.09.01-.16.02-2-1.78-2.99-2.66-4.99-4.42.06,0,.09-.01.16-.02Z"/>
    <path class="st2" d="M399.3,32.48c2,1.79,2.99,2.7,4.99,4.51.16,1.44.21,2.88.21,4.39,0,5.81-1.14,11.83-3.05,14.51-2-1.8-2.99-2.7-4.99-4.48,1.91-2.7,3.05-8.73,3.05-14.53,0-1.51-.05-2.95-.21-4.39Z"/>
    <path class="st2" d="M396.45,51.4c2,1.79,2.99,2.68,4.99,4.48-1.96,3.05-4.65,4.84-8.11,5.23-2-1.78-2.99-2.66-4.99-4.42,3.46-.42,6.15-2.22,8.11-5.29Z"/>
    <path class="st2" d="M413.12,29.58c-2-1.84-2.99-2.75-4.99-4.58.09.09.24.11.47.09,2,1.82,2.99,2.74,4.99,4.58-.23.02-.37,0-.47-.09Z"/>
    <path class="st2" d="M408.59,34.27c2,1.82,2.99,2.74,4.99,4.58-.67.05-.67.11-.67.99-2-1.84-2.99-2.75-4.99-4.58,0-.88,0-.93.67-.99Z"/>
    <path class="st2" d="M411.28,34.04c2,1.83,2.99,2.75,4.99,4.6-1.08.08-1.61.13-2.69.21-2-1.84-2.99-2.76-4.99-4.58,1.08-.1,1.61-.14,2.69-.24Z"/>
    <path class="st2" d="M407.92,35.27c2,1.82,2.99,2.74,4.99,4.58,0,2.43,0,3.64,0,6.07-2-1.84-2.99-2.75-4.99-4.58,0-2.43,0-3.64,0-6.07Z"/>
    <path class="st2" d="M413.12,46.69c-2-1.84-2.99-2.75-4.99-4.58-.13-.11-.21-.34-.21-.77,2,1.82,2.99,2.74,4.99,4.58,0,.43.08.66.21.78Z"/>
    <path class="st2" d="M425.44,23.82c2,1.88,2.99,2.83,4.99,4.73-6.74.35-10.11.58-16.84,1.13-2-1.84-2.99-2.76-4.99-4.58,6.74-.61,10.11-.86,16.84-1.27Z"/>
    <path class="st2" d="M417.54,34.7c2,1.85,2.99,2.79,4.99,4.66-1.14-1.07-3.4-.94-6.26-.72-2-1.85-2.99-2.77-4.99-4.6,2.86-.24,5.12-.39,6.26.67Z"/>
    <path class="st2" d="M407.13,59.19c-2-1.82-2.99-2.73-4.99-4.53.17.15.43.2.82.16,2,1.81,2.99,2.71,4.99,4.54-.39.04-.65-.01-.82-.17Z"/>
    <path class="st2" d="M444.53,13.66c2,1.96,2.99,2.94,4.99,4.91.12.12.15.34.13.73-2-1.98-2.99-2.96-4.99-4.92.03-.39,0-.61-.13-.73Z"/>
    <path class="st2" d="M408.85,54.17c2,1.83,2.99,2.74,4.99,4.58-2.36.23-3.53.35-5.89.61-2-1.82-2.99-2.73-4.99-4.54,2.36-.27,3.53-.41,5.89-.66Z"/>
    <path class="st2" d="M414.54,47.67c2,1.84,2.99,2.77,4.99,4.63-.96-.9-2.4-.86-4.39-.71-.3.02-.25.27-.21,5.46,0,1.45-.11,1.61-1.09,1.69-2-1.84-2.99-2.76-4.99-4.58.98-.09,1.09-.25,1.09-1.7-.05-5.19-.09-5.44.21-5.46,1.99-.17,3.43-.22,4.39.67Z"/>
    <path class="st2" d="M423.06,49.91c-2-1.87-2.99-2.81-4.99-4.66-.27-.25-.39-.47-.39-.68,0-.36.41-.76,1.34-1.24,2,1.86,2.99,2.79,4.99,4.67-.93.47-1.34.86-1.34,1.23,0,.21.12.43.39.68Z"/>
    <path class="st2" d="M421.02,29.23c2,1.87,2.99,2.8,4.99,4.69,1.6,1.51,2.04,3.8,2.04,6.43,0,4.82-1.19,6.18-4.03,7.66-2-1.88-2.99-2.81-4.99-4.67,2.84-1.5,4.03-2.87,4.03-7.69,0-2.62-.44-4.91-2.04-6.41Z"/>
    <path class="st2" d="M444.66,14.39c2,1.96,2.99,2.94,4.99,4.92-.1,2.86-.16,4.3-.26,7.16-2-1.98-2.99-2.96-4.99-4.91.1-2.87.16-4.3.26-7.16Z"/>
    <path class="st2" d="M444.4,21.55c2,1.96,2.99,2.94,4.99,4.91-.05,1.14,0,1.45-.67,1.46-2-1.97-2.99-2.95-4.99-4.91.67-.02.62-.33.67-1.47Z"/>
    <path class="st2" d="M419.25,46.12c2,1.86,2.99,2.79,4.99,4.67,1.28,1.21,2.12,4.18,2.26,7.06-2-1.89-2.99-2.82-4.99-4.69-.14-2.88-.97-5.85-2.26-7.04Z"/>
    <path class="st2" d="M421.24,63.12c-2-1.87-2.99-2.8-4.99-4.65.09.09.26.09.55.06,2,1.85,2.99,2.78,4.99,4.65-.29.02-.46.02-.55-.07Z"/>
    <path class="st2" d="M451.01,24.65c2,1.98,2.99,2.98,4.99,4.98.06.06.06.19.06.46-2-2-2.99-3-4.99-4.98,0-.27,0-.4-.06-.46Z"/>
    <path class="st2" d="M421.09,58.23c2,1.87,2.99,2.8,4.99,4.69-1.72.1-2.57.16-4.29.27-2-1.87-2.99-2.8-4.99-4.65,1.72-.13,2.57-.19,4.29-.31Z"/>
    <path class="st2" d="M421.51,53.17c2,1.87,2.99,2.81,4.99,4.69.08,1.88.12,2.83.2,4.71-2-1.89-2.99-2.83-4.99-4.7-.08-1.88-.12-2.82-.2-4.71Z"/>
    <path class="st2" d="M421.71,57.88c2,1.87,2.99,2.81,4.99,4.7,0,.26-.05.31-.62.35-2-1.88-2.99-2.82-4.99-4.69.57-.04.62-.09.62-.35Z"/>
    <path class="st2" d="M430.72,58.43c-2-1.9-2.99-2.85-4.99-4.73.12.11.28.12.52.1,2,1.89,2.99,2.83,4.99,4.74-.24.01-.41,0-.52-.11Z"/>
    <path class="st2" d="M443.73,23.02c2,1.95,2.99,2.93,4.99,4.91-.72-.14-7.49.01-9.66.09-2.22.08-2.89.16-2.89.26,0,4.15-.06,14.42-.06,20.33,0,2.96,0,5.86.05,8.35-2-1.92-2.99-2.88-4.99-4.78-.05-2.49-.05-5.39-.05-8.35,0-5.91.06-16.19.06-20.33,0-.1.67-.19,2.89-.29,2.17-.1,8.94-.32,9.66-.19Z"/>
    <path class="st2" d="M451.07,25.12c2,1.98,2.99,2.98,4.99,4.98,0,2.63,0,3.95,0,6.59-2-2-2.99-3-4.99-4.98,0-2.63,0-3.95,0-6.59Z"/>
    <path class="st2" d="M442.81,40.89c-2-1.95-2.99-2.92-4.99-4.85-.17-.16-.29-.95-.29-1.77,0-.99.16-2.03.46-2.04,4.86-.18,8.47-.09,10.54-.13,2.53-.04,2.53-.09,2.53-.4,2,1.98,2.99,2.98,4.99,4.98,0,.31,0,.36-2.53.37-2.07.01-5.68-.11-10.54.02-.31,0-.46,1.05-.46,2.04,0,.82.12,1.61.29,1.77Z"/>
    <path class="st2" d="M430.34,53.57c2,1.9,2.99,2.86,4.99,4.77-1.63.07-2.45.11-4.08.19-2-1.9-2.99-2.85-4.99-4.74,1.63-.1,2.45-.14,4.08-.23Z"/>
    <path class="st2" d="M442.82,50.6c-2-1.95-2.99-2.92-4.99-4.85-.17-.16-.2-.63-.2-1.17,0-.83.15-1.72.26-1.72,2,1.93,2.99,2.9,4.99,4.85-.1,0-.26.89-.26,1.72,0,.54.03,1,.2,1.17Z"/>
    <path class="st2" d="M431.17,52.18c2,1.9,2.99,2.86,4.99,4.78-.05,1.25-.21,1.36-.83,1.38-2-1.92-2.99-2.87-4.99-4.77.62-.03.77-.14.83-1.39Z"/>
    <path class="st2" d="M450.44,35.81c2,1.98,2.99,2.98,4.99,4.98.06.06,0,.19,0,.46-2-2-2.99-3-4.99-4.98,0-.27.06-.4,0-.46Z"/>
    <path class="st2" d="M439.21,57.98c-2-1.93-2.99-2.9-4.99-4.81.06.05.17.06.39.05.09,0,.2-.01.33-.02,2,1.92,2.99,2.88,4.99,4.82-.13,0-.24,0-.33.01-.22,0-.33,0-.39-.05Z"/>
    <path class="st2" d="M449.31,42.31c2,1.98,2.99,2.97,4.99,4.96-4.57.12-6.85.21-11.42.44-2-1.95-2.99-2.92-4.99-4.85,4.57-.27,6.85-.39,11.42-.55Z"/>
    <path class="st2" d="M450.44,36.28c2,1.98,2.99,2.98,4.99,4.98-.06,2.12-.09,3.17-.16,5.29-2-2-2.99-3-4.99-4.97.06-2.12.09-3.18.16-5.29Z"/>
    <path class="st2" d="M450.29,41.57c2,1.98,2.99,2.97,4.99,4.97,0,.69.04.73-.66.73-.09,0-.2,0-.32,0-2-2-2.99-2.99-4.99-4.96.12,0,.23,0,.32,0,.7,0,.66-.05.66-.74Z"/>
    <path class="st2" d="M450.33,45.58c2,1.98,2.99,2.97,4.99,4.98.06.06.06.18.06.4-2-2-2.99-3-4.99-4.98,0-.22,0-.34-.06-.4Z"/>
    <path class="st2" d="M448.11,52.96c2,1.97,2.99,2.96,4.99,4.95-5.27-.03-7.9,0-13.17.11-2-1.94-2.99-2.9-4.99-4.82,5.27-.16,7.9-.21,13.17-.24Z"/>
    <path class="st2" d="M448.32,52.96c2,1.97,2.99,2.96,4.99,4.95-.08,0-.12,0-.21,0-2-1.99-2.99-2.98-4.99-4.95.08,0,.12,0,.21,0Z"/>
    <path class="st2" d="M450.39,45.98c2,1.98,2.99,2.97,4.99,4.98-.02,2.53-.03,3.8-.05,6.33-2-2-2.99-3-4.99-4.98.02-2.53.03-3.8.05-6.33Z"/>
    <g>
      <g>
        <path class="st1" d="M85.58,72.21c.77-.04.98,0,.93.83-.1,3.26-.16,4.89-.26,8.16-.05,1.14,0,1.45-.67,1.49-.72-.12-2.84-.02-5.01.07-2.22.09-2.89.16-2.89.26,0,4.15-.05,10.32-.06,16.24,0,2.95,0,5.86.05,8.35-.05,1.25-.21,1.36-.83,1.38-.21,0-.31,0-.52.02-.41.01-.62-.03-.72-.03-.16,0-2.33.12-2.74.13-.23,0-.34,0-.57.01-.57.01-.73-.1-.77-1.33,0-.1-.05-2.02-.05-24.58-2.89.06-4.34.08-7.23.1-.67,0-.62-.31-.67-1.45-.1-3.26-.15-4.89-.25-8.14-.05-.83.15-.88.93-.89,3.98-.02,5.63.05,9.35,0,3.93-.15,8.01-.41,11.99-.6Z"/>
        <path class="st1" d="M111.52,71.27c.67-.06.67.3.67,1.39.03,10.36.16,20.8.2,31.2,0,.52,0,.78,0,1.3,0,1.25-.21,1.37-.93,1.44-.25.02-.37.04-.62.06-2.17.2-3.46.26-3.46-.88,0-.48,0-.71,0-1.19-1.65,1.8-3.3,2.84-6.25,3.16-11.44,1.22-11.49-14.44-11-21.77,0-.54,0-.81,0-1.35-.39,0-.59,0-.98,0-.57-.02-.62-.02-.62-1.21.06-3.01.1-4.52.16-7.53,0-.78.1-.83.72-.87,2.87-.16,4.31-.25,7.18-.45.72-.05.93.04.98,1.28,0,0,.15,17.16.15,17.41,0,4.05,3.25,4.64,4.44,4.54,3.51-.28,5.22-2.25,5.22-5.93-.02-7.01-.03-10.51-.05-17.52,0-1.87.21-2.72,1.04-2.79,1.26-.11,1.89-.17,3.15-.29Z"/>
        <path class="st1" d="M137.14,83.03c.67-.09.72.21.72,1.1,0,1.97,0,2.96,0,4.93,0,12.76-6,15.11-11.84,15.79-8.32.97-10.87-3.34-11.26-16.21-.31-10.17,4.17-21.01,15.71-22.08,2.92-.27,12.3-1.86,15.6-2.34,3.15-.45,5.58-.77,6.3-.72,1.18.08,1.39.15,1.39.83-.04,2.79-.06,4.18-.11,6.96,0,.36-.41,1-1.6,1.18-2.89.44-24.18,3.69-26.25,3.93-3.46.4-5.79,5-5.79,12.06,0,6.85,1.08,8.93,6.4,8.31,2.89-.34,4.34-1.41,4.34-3.12,0-2.07-1.55-2.24-4.6-1.89-.07,0-.13.02-.18.02-.33.04-.29,0-.29-.59,0-2.37,0-3.55,0-5.91,0-.57.05-.68.52-.79,4.36-.55,6.54-.84,10.9-1.46Z"/>
        <path class="st1" d="M164.48,63.77l.15,5.63c0,.15,0,.22,0,.36,0,.83-.15.85-.72,1-.31.07-.46.11-.77.18-.04,5.42-.06,8.13-.11,13.55-.11,15.16-3.05,17.63-9.77,18.65-10.8,1.64-12.76-1.53-12.76-16.99,0-3.15,0-4.73,0-7.88,0-.62,0-.67.52-.74.17-.02.25-.03.41-.06,2.83-.45,4.25-.68,7.08-1.16.19-.03.28-.04.46-.07.31-.05.36.05.36,1.04.04,5.04.06,7.55.1,12.59,0,3.06-.26,8.51,4.49,7.78,3.88-.59,4.29-.87,4.29-9.79,0-.78-.51-21.81-.51-22.9,0-1.09.05-1.15.46-1.21.12-.02.19-.03.31-.05,6.1-.96,3.36-.38,5.17-.67.67-.11.83-.03.83.75Z"/>
        <path class="st1" d="M200.44,58.12c.67-.13,1.19-.18,1.19.6,0,1.43,0,2.15,0,3.58,0,.62-.11,1.16-.67,1.27-2.67.48-4,.71-6.66,1.18-.41.08-.93-.08-.93-1.02,0-1.1,0-1.65,0-2.75,0-.21-.05-.4-.05-.61,0-.62.21-1.07.93-1.21,2.48-.41,3.72-.62,6.2-1.04Z"/>
        <path class="st1" d="M200.38,65.44c1.08-.21,1.13.25,1.24,1.26,0,6.58,0,9.87,0,16.44,0,.73-.11.64-1.19.91-2.65.6-3.97.89-6.61,1.48-.57.11-.62-.04-.62-1.08,0-.1,0-.16,0-.26,0-3.63.21-4.34.21-8.03,0-4.3-.05-3.83-.15-8.06,0-.88,0-1.3.77-1.44,2.54-.48,3.81-.73,6.36-1.22Z"/>
        <path class="st1" d="M200.84,86.51c.36-.07.67-.03.67.54,0,9.85-.26,12.21-7.29,13.54-2.13.4-3.19.6-5.32,1-2.17.4-5.27.4-5.27-9.35,0-8.92-4.28-8.45-10.02-7.45-.31.05-.26.41-.21.76,0,3.92,0,5.88,0,9.8,0,1.45-.15,1.63-1.14,1.8-1.65.33-2.48.49-4.14.81-.06.01-.09.02-.15.03-.98.16-1.14-.28-1.14-1.63.04-10.65.11-21.39.12-32.07,0-1.76.1-1.83,1.4-2.1,3.72-.71,5.58-1.07,9.3-1.81.77-.15,1.51-.3,2.21-.42,7.24-1.29,10.76-.63,10.75,9.68,0,5.03-1.25,8.08-4.09,9.88-.92.59-1.34,1.03-1.34,1.39,0,.36.36.71,1.19,1.13,1.5.76,2.63,3.87,2.63,7.03,0,5.7.93,7.55,1.91,7.37,2.58-.48,2.38-4.7,2.38-7.4,0-1.04.1-1.11.67-1.22,2.75-.52,4.12-.79,6.87-1.32ZM178.42,79.02c3.62-.64,7.49-2.91,7.49-5.71,0-3.53-3.51-2.93-7.75-2.18-1.65.29-2.48.44-4.14.72-.67.12-.67.17-.67,1.05,0,2.43,0,3.64,0,6.07,0,.83.26.89.57.83,1.8-.31,2.7-.47,4.5-.79"/>
        <path class="st1" d="M225.65,64.26c.15,1.42.2,2.86.2,4.37,0,5.81-1.14,11.95-3.05,14.84-1.96,3.26-4.65,5.31-8.11,6.01-.06.01-.09.02-.15.03-7.49,1.36-10.38-2.08-10.38-15.36,0-11.77,1.91-16.63,6.72-19.59.62-.38,1.5-.72,2.53-.92,2.63-.53,6.05-.4,7.34.43,2.89,1.38,4.18,3.91,4.9,10.19ZM220.11,76.81c.83-1.72,1.19-3.72,1.19-5.64,0-1.92-.36-3.82-1.19-5.2-1.03-1.86-1.71-2.14-4.6-1.87-.62.07-1.19.13-1.71.24-3.93.79-5.01,3.08-5.02,9.3,0,6.43.88,7.87,5.22,6.99.37-.08.56-.11.93-.19,3.56-.82,4.08-1.19,5.17-3.64"/>
        <path class="st1" d="M239.85,65.86c11.06-2.33,13.74-1.14,13.74,6.12,0,4.67-3.26,10.76-12.82,12.77-5.27,1.11-7.08-1.63-7.59-1.52-.21.04-.26.32-.26,2.75,0,1.61-.78,1.82-2.79,2.24-.68.14-1.02.21-1.71.35-.46.1-.51.06-.51-.57,0-5.08,0-7.63,0-12.71,0-.57.05-.63.72-.77,1.26-.26,1.89-.39,3.15-.66,3.1-.65,3.98-.63,3.98,1.55,0,2.8,1.7,2.7,4.8,2.05,1.96-.41,3.51-2.09,3.51-4.22,0-3.16-1.44-3.63-5.37-2.81-3.2.67-11.21,1.93-11.21-8.03,0-7.68,3.62-12.05,10.08-13.41,8.32-1.75,10.02,2.81,10.08,2.8,0-.05-.26-.83-.26-3.11,0-.1.05-1.05.05-1.2,0-.46.21-.77.83-.9,1.61-.34,2.42-.51,4.03-.85.62-.13.72-.1.72.47,0,4.96,0,7.44,0,12.4,0,.93-.05,1.1-.41,1.18-.02,0-4.36.71-4.96.79-3.88.61-3.71.42-3.82-1.21-.14-2.08-1.6-2.2-5.42-1.4-3.1.65-4.65,2.58-4.65,4.35,0,2.28,2.38,4.33,6.1,3.54Z"/>
        <path class="st1" d="M277.73,46.94c10.39-2.19,12.55,3.24,12.55,14.86,0,8.56-1.09,13.69-12.92,16.18-1.96.41-4.86.97-9.09,1.87-.08.02-.12.03-.21.04-.26.06-.26,0-.26-.31.26-4.67.26-6.44.26-9.7,0-1.56,0-2.33,0-3.89,0-9.96-.15-15.73-.15-16.1,0-.83.05-.89.57-1,3.7-.78,5.55-1.18,9.25-1.95ZM278.5,70.69c3.1-.65,5.17-4.3,5.17-9.9,0-3.73-1.96-6.75-4.6-6.19-.36.08-1.75.32-4.65.93-.21.04-.72.36-.72,1.04.02,5.66.03,8.49.05,14.15,0,.88.63.91,1.89.65.74-.16,1.7-.41,2.87-.66"/>
        <path class="st1" d="M312.5,30.8c.36-.07.36-.02.36.55,0,3.26,0,4.89,0,8.14,0,.36,0,.46-3.15,1.09-2.53.5-6.07,1.07-12.04,2.27-.36.07-.52,1.4-.52,2.65,0,1.14.15,2.2.41,2.15,5.29-1.1,7.94-1.65,13.23-2.71.13-.03.24-.05.33-.07.56-.11.44-.05.4.54-.15,2.64-.22,3.96-.36,6.61-.05.95.1.81-1.19,1.12-4.94,1.14-7.41,1.73-12.35,2.9-.21.04-.36,3.24-.36,4.23,0,.83.1,1.53.41,1.47,1.14-.08,2.43-.29,3.77-.56,2.74-.55,5.8-1.4,9.2-2.1.1-.02.19-.04.26-.05.45-.09.41-.04.46.48.23,3.71.34,5.57.57,9.28.05.77.05.82-.26.88-.1.02-.15.03-.26.05-7.09,1.34-10.63,2.03-17.72,3.42-.12.03-.23.05-.32.07-.65.13-.61.09-.61-.55,0-.58,0-.87,0-1.45,0-6.64-.15-18.59-.15-26.16,0-.56,0-.84,0-1.4,0-1.56-.1-1.64-1.5-1.35-4.59.91-6.88,1.37-11.47,2.29-.21.05-.37.1-.51.12-.54.11-.57.02-.57-.31,0-.21,0-.31,0-.52.04-1.88.06-2.81.1-4.69,0-.88.15-.97.72-1.09,10.96-2.46,21.93-4.88,32.91-7.25.08-.02.12-.02.21-.04Z"/>
        <path class="st1" d="M321.64,32.19c.72-.14.98-.08.98,1.16,0,9.05,0,13.57,0,22.62,0,.31,3.2-.09,6.66-.73,2.38-.44,4.13-1.02,6.3-1.67.07-.02.13-.04.19-.05.51-.09.44.36.48,1.38.1,3.18.15,4.76.25,7.94,0,.08,0,.13,0,.21,0,.62-.21.71-.93.84-4.44.8-14.42,3.45-17.83,4.11-1.13.22-1.65.22-1.65-.92,0-.06,0-.09,0-.15,0-6.95.52-13.07.52-17.84,0-2.39,0-4.41-.05-6.11-.48.07-.71.11-1.19.18-.62.07-.67.08-.67-1.11.04-3.02.06-4.52.11-7.54,0-.78.15-.91.83-1.04,5.22-1.02,5.32-1.13,5.32-1.13.27-.05.4-.08.67-.13Z"/>
        <path class="st1" d="M375.28,21.98c.31-.04.36-.05.36.26-.23,11.39-.46,22.78-.68,34.17,0,.47-2.58,1.76-4.96,2.1-1.09.16-2.12,0-2.79-.84-1.81-3.52-3.1-6.12-4.34-8.68-.93-1.93-4.18-9.78-6.09-12.12-.26.4-.27,17.57-.27,24.78,0,.57.05.61-.46.7-.39.06-.59.09-.98.16-3.56.58-4.8.48-4.8-.46.05-11.13.11-22.25.16-33.38,0-.7-.02-.89.2-.92.12-.02.32,0,.63,0,2.07-.03,3.1-.04,5.17-.07,1.81-.03,3.88-.2,4.7-.33,2.69-.42,7.54,18.05,8.88,17.86.21-.03.36-5.08.36-11.31,0-4.27,0-6.41,0-10.69,0-.57-.05-.56.31-.61,1.84-.27,2.76-.39,4.6-.65Z"/>
        <path class="st1" d="M399.3,32.48c.16,1.44.21,2.88.21,4.39,0,5.81-1.14,11.84-3.05,14.53-1.96,3.07-4.65,4.87-8.11,5.29-.06,0-.09.01-.16.02-7.49.75-10.38-2.82-10.38-16.1,0-11.77,1.91-16.54,6.72-19.13.62-.33,1.5-.6,2.53-.73,2.63-.32,6.04.11,7.34,1.06,2.89,1.65,4.18,4.31,4.9,10.67ZM393.76,44.49c.83-1.65,1.19-3.61,1.19-5.53,0-1.92-.36-3.85-1.19-5.31-1.03-1.96-1.71-2.3-4.6-2.27-.62.02-1.19.04-1.71.1-3.93.48-5.01,2.71-5.01,8.93,0,6.43.88,7.91,5.22,7.38.37-.05.56-.07.93-.11,3.57-.53,4.08-.84,5.17-3.2"/>
        <path class="st1" d="M419.03,43.33c-.93.48-1.34.88-1.34,1.24,0,.36.36.75,1.19,1.26,1.5.93,2.48,4.18,2.63,7.33.08,1.88.12,2.82.2,4.71,0,.26-.05.31-.62.35-1.72.12-2.57.18-4.29.31-.62.05-.67,0-.67-.78,0-.81,0-1.21,0-2.02,0-8.92-1.72-9.09-5.99-8.74-.3.02-.23.3-.21,5.46,0,1.44-.11,1.62-1.09,1.7-2.36.25-3.53.38-5.89.66-.98.1-1.14-.35-1.14-1.7,0-.22.1-4.42.11-22.52,0-1.76.15-1.83,1.45-2.01,3.7-.45,5.55-.66,9.25-1.05.22-.02.43-.04.65-.06,8.17-.67,9.79,3.15,9.79,8.16,0,4.82-1.19,6.19-4.03,7.69ZM411.49,41.95c3.62-.31,6.87-2.1,6.87-4.9,0-3.53-2.89-3.37-7.08-3.02-1.08.09-1.61.14-2.69.24-.67.06-.67.11-.67.99,0,2.43,0,3.64,0,6.07,0,.83.31.9.62.88,1.18-.11,1.77-.16,2.95-.26"/>
        <path class="st1" d="M443.75,23.02c-.7-.14-7.3.08-9.42.17-2.16.1-2.82.18-2.82.29,0,4.15-.05,14.42-.06,20.33,0,2.96,0,5.86.05,8.35-.05,1.25-.2,1.36-.81,1.39-1.59.08-2.39.13-3.98.22-.55.03-.7-.06-.75-1.3-.01-9.56-.03-19.12-.04-28.68-6.57.39-9.85.64-16.42,1.22-.65.06-.6-.26-.65-1.39-.1-2.85-.15-4.28-.25-7.14-.05-.82.15-.89.91-.96,3.88-.34,14.41-1.01,18.03-1.16,3.83-.27,12.34-.73,16.22-.83.76-.02.96.03.91.86-.1,2.87-.15,4.3-.25,7.16-.05,1.14,0,1.45-.66,1.47Z"/>
        <path class="st1" d="M450.76,24.6c.31,0,.31.05.31.51,0,2.63,0,3.95,0,6.59,0,.31,0,.36-2.53.4-2.07.03-5.68-.05-10.54.13-.31.01-.46,1.05-.46,2.04,0,.93.15,1.81.36,1.8,4.79-.18,7.19-.24,11.99-.3.78-.01.57,0,.57.51-.06,2.12-.09,3.18-.16,5.29,0,.69.04.73-.66.74-.09,0-.2,0-.32,0-4.57.17-6.85.28-11.42.55-.1,0-.26.89-.26,1.72,0,.67.05,1.24.36,1.23.93.07,1.91.09,3,.06,2.22-.07,6.1-.26,8.83-.35q.57,0,.57.46c-.02,2.53-.03,3.8-.05,6.33,0,.62-1.81.65-2.01.65-.08,0-.12,0-.21,0-5.27.03-7.9.07-13.17.24-.13,0-.24.01-.33.02-.48.02-.44-.02-.44-.5,0-6.74-.15-13.53-.15-19.44,0-2.65.05-4.72.11-7,0-.38,0-.42.26-.43.06,0,.13,0,.21,0,6.47-.59,9.7-.84,16.17-1.23Z"/>
      </g>
      <g>
        <path class="st0" d="M85.58,72.21c.77-.04.98,0,.93.83-.1,3.26-.16,4.89-.26,8.16-.05,1.14,0,1.45-.67,1.49-.72-.12-2.84-.02-5.01.07-2.22.09-2.89.16-2.89.26,0,4.15-.05,10.32-.06,16.24,0,2.95,0,5.86.05,8.35-.05,1.25-.21,1.36-.83,1.38-.21,0-.31,0-.52.02-.41.01-.62-.03-.72-.03-.16,0-2.33.12-2.74.13-.23,0-.34,0-.57.01-.57.01-.73-.1-.77-1.33,0-.1-.05-2.02-.05-24.58-2.89.06-4.34.08-7.23.1-.67,0-.62-.31-.67-1.45-.1-3.26-.15-4.89-.25-8.14-.05-.83.15-.88.93-.89,3.98-.02,5.63.05,9.35,0,3.93-.15,8.01-.41,11.99-.6Z"/>
        <path class="st0" d="M111.52,71.27c.67-.06.67.3.67,1.39.03,10.36.16,20.8.2,31.2,0,.52,0,.78,0,1.3,0,1.25-.21,1.37-.93,1.44-.25.02-.37.04-.62.06-2.17.2-3.46.26-3.46-.88,0-.48,0-.71,0-1.19-1.65,1.8-3.3,2.84-6.25,3.16-11.44,1.22-11.49-14.44-11-21.77,0-.54,0-.81,0-1.35-.39,0-.59,0-.98,0-.57-.02-.62-.02-.62-1.21.06-3.01.1-4.52.16-7.53,0-.78.1-.83.72-.87,2.87-.16,4.31-.25,7.18-.45.72-.05.93.04.98,1.28,0,0,.15,17.16.15,17.41,0,4.05,3.25,4.64,4.44,4.54,3.51-.28,5.22-2.25,5.22-5.93-.02-7.01-.03-10.51-.05-17.52,0-1.87.21-2.72,1.04-2.79,1.26-.11,1.89-.17,3.15-.29Z"/>
        <path class="st0" d="M137.14,83.03c.67-.09.72.21.72,1.1,0,1.97,0,2.96,0,4.93,0,12.76-6,15.11-11.84,15.79-8.32.97-10.87-3.34-11.26-16.21-.31-10.17,4.17-21.01,15.71-22.08,2.92-.27,12.3-1.86,15.6-2.34,3.15-.45,5.58-.77,6.3-.72,1.18.08,1.39.15,1.39.83-.04,2.79-.06,4.18-.11,6.96,0,.36-.41,1-1.6,1.18-2.89.44-24.18,3.69-26.25,3.93-3.46.4-5.79,5-5.79,12.06,0,6.85,1.08,8.93,6.4,8.31,2.89-.34,4.34-1.41,4.34-3.12,0-2.07-1.55-2.24-4.6-1.89-.07,0-.13.02-.18.02-.33.04-.29,0-.29-.59,0-2.37,0-3.55,0-5.91,0-.57.05-.68.52-.79,4.36-.55,6.54-.84,10.9-1.46Z"/>
        <path class="st0" d="M164.48,63.77l.15,5.63c0,.15,0,.22,0,.36,0,.83-.15.85-.72,1-.31.07-.46.11-.77.18-.04,5.42-.06,8.13-.11,13.55-.11,15.16-3.05,17.63-9.77,18.65-10.8,1.64-12.76-1.53-12.76-16.99,0-3.15,0-4.73,0-7.88,0-.62,0-.67.52-.74.17-.02.25-.03.41-.06,2.83-.45,4.25-.68,7.08-1.16.19-.03.28-.04.46-.07.31-.05.36.05.36,1.04.04,5.04.06,7.55.1,12.59,0,3.06-.26,8.51,4.49,7.78,3.88-.59,4.29-.87,4.29-9.79,0-.78-.51-21.81-.51-22.9,0-1.09.05-1.15.46-1.21.12-.02.19-.03.31-.05,6.1-.96,3.36-.38,5.17-.67.67-.11.83-.03.83.75Z"/>
        <path class="st0" d="M200.44,58.12c.67-.13,1.19-.18,1.19.6,0,1.43,0,2.15,0,3.58,0,.62-.11,1.16-.67,1.27-2.67.48-4,.71-6.66,1.18-.41.08-.93-.08-.93-1.02,0-1.1,0-1.65,0-2.75,0-.21-.05-.4-.05-.61,0-.62.21-1.07.93-1.21,2.48-.41,3.72-.62,6.2-1.04Z"/>
        <path class="st0" d="M200.38,65.44c1.08-.21,1.13.25,1.24,1.26,0,6.58,0,9.87,0,16.44,0,.73-.11.64-1.19.91-2.65.6-3.97.89-6.61,1.48-.57.11-.62-.04-.62-1.08,0-.1,0-.16,0-.26,0-3.63.21-4.34.21-8.03,0-4.3-.05-3.83-.15-8.06,0-.88,0-1.3.77-1.44,2.54-.48,3.81-.73,6.36-1.22Z"/>
        <path class="st0" d="M200.84,86.51c.36-.07.67-.03.67.54,0,9.85-.26,12.21-7.29,13.54-2.13.4-3.19.6-5.32,1-2.17.4-5.27.4-5.27-9.35,0-8.92-4.28-8.45-10.02-7.45-.31.05-.26.41-.21.76,0,3.92,0,5.88,0,9.8,0,1.45-.15,1.63-1.14,1.8-1.65.33-2.48.49-4.14.81-.06.01-.09.02-.15.03-.98.16-1.14-.28-1.14-1.63.04-10.65.11-21.39.12-32.07,0-1.76.1-1.83,1.4-2.1,3.72-.71,5.58-1.07,9.3-1.81.77-.15,1.51-.3,2.21-.42,7.24-1.29,10.76-.63,10.75,9.68,0,5.03-1.25,8.08-4.09,9.88-.92.59-1.34,1.03-1.34,1.39,0,.36.36.71,1.19,1.13,1.5.76,2.63,3.87,2.63,7.03,0,5.7.93,7.55,1.91,7.37,2.58-.48,2.38-4.7,2.38-7.4,0-1.04.1-1.11.67-1.22,2.75-.52,4.12-.79,6.87-1.32ZM178.42,79.02c3.62-.64,7.49-2.91,7.49-5.71,0-3.53-3.51-2.93-7.75-2.18-1.65.29-2.48.44-4.14.72-.67.12-.67.17-.67,1.05,0,2.43,0,3.64,0,6.07,0,.83.26.89.57.83,1.8-.31,2.7-.47,4.5-.79"/>
        <path class="st0" d="M225.65,64.26c.15,1.42.2,2.86.2,4.37,0,5.81-1.14,11.95-3.05,14.84-1.96,3.26-4.65,5.31-8.11,6.01-.06.01-.09.02-.15.03-7.49,1.36-10.38-2.08-10.38-15.36,0-11.77,1.91-16.63,6.72-19.59.62-.38,1.5-.72,2.53-.92,2.63-.53,6.05-.4,7.34.43,2.89,1.38,4.18,3.91,4.9,10.19ZM220.11,76.81c.83-1.72,1.19-3.72,1.19-5.64,0-1.92-.36-3.82-1.19-5.2-1.03-1.86-1.71-2.14-4.6-1.87-.62.07-1.19.13-1.71.24-3.93.79-5.01,3.08-5.02,9.3,0,6.43.88,7.87,5.22,6.99.37-.08.56-.11.93-.19,3.56-.82,4.08-1.19,5.17-3.64"/>
        <path class="st0" d="M239.85,65.86c11.06-2.33,13.74-1.14,13.74,6.12,0,4.67-3.26,10.76-12.82,12.77-5.27,1.11-7.08-1.63-7.59-1.52-.21.04-.26.32-.26,2.75,0,1.61-.78,1.82-2.79,2.24-.68.14-1.02.21-1.71.35-.46.1-.51.06-.51-.57,0-5.08,0-7.63,0-12.71,0-.57.05-.63.72-.77,1.26-.26,1.89-.39,3.15-.66,3.1-.65,3.98-.63,3.98,1.55,0,2.8,1.7,2.7,4.8,2.05,1.96-.41,3.51-2.09,3.51-4.22,0-3.16-1.44-3.63-5.37-2.81-3.2.67-11.21,1.93-11.21-8.03,0-7.68,3.62-12.05,10.08-13.41,8.32-1.75,10.02,2.81,10.08,2.8,0-.05-.26-.83-.26-3.11,0-.1.05-1.05.05-1.2,0-.46.21-.77.83-.9,1.61-.34,2.42-.51,4.03-.85.62-.13.72-.1.72.47,0,4.96,0,7.44,0,12.4,0,.93-.05,1.1-.41,1.18-.02,0-4.36.71-4.96.79-3.88.61-3.71.42-3.82-1.21-.14-2.08-1.6-2.2-5.42-1.4-3.1.65-4.65,2.58-4.65,4.35,0,2.28,2.38,4.33,6.1,3.54Z"/>
        <path class="st0" d="M277.73,46.94c10.39-2.19,12.55,3.24,12.55,14.86,0,8.56-1.09,13.69-12.92,16.18-1.96.41-4.86.97-9.09,1.87-.08.02-.12.03-.21.04-.26.06-.26,0-.26-.31.26-4.67.26-6.44.26-9.7,0-1.56,0-2.33,0-3.89,0-9.96-.15-15.73-.15-16.1,0-.83.05-.89.57-1,3.7-.78,5.55-1.18,9.25-1.95ZM278.5,70.69c3.1-.65,5.17-4.3,5.17-9.9,0-3.73-1.96-6.75-4.6-6.19-.36.08-1.75.32-4.65.93-.21.04-.72.36-.72,1.04.02,5.66.03,8.49.05,14.15,0,.88.63.91,1.89.65.74-.16,1.7-.41,2.87-.66"/>
        <path class="st0" d="M312.5,30.8c.36-.07.36-.02.36.55,0,3.26,0,4.89,0,8.14,0,.36,0,.46-3.15,1.09-2.53.5-6.07,1.07-12.04,2.27-.36.07-.52,1.4-.52,2.65,0,1.14.15,2.2.41,2.15,5.29-1.1,7.94-1.65,13.23-2.71.13-.03.24-.05.33-.07.56-.11.44-.05.4.54-.15,2.64-.22,3.96-.36,6.61-.05.95.1.81-1.19,1.12-4.94,1.14-7.41,1.73-12.35,2.9-.21.04-.36,3.24-.36,4.23,0,.83.1,1.53.41,1.47,1.14-.08,2.43-.29,3.77-.56,2.74-.55,5.8-1.4,9.2-2.1.1-.02.19-.04.26-.05.45-.09.41-.04.46.48.23,3.71.34,5.57.57,9.28.05.77.05.82-.26.88-.1.02-.15.03-.26.05-7.09,1.34-10.63,2.03-17.72,3.42-.12.03-.23.05-.32.07-.65.13-.61.09-.61-.55,0-.58,0-.87,0-1.45,0-6.64-.15-18.59-.15-26.16,0-.56,0-.84,0-1.4,0-1.56-.1-1.64-1.5-1.35-4.59.91-6.88,1.37-11.47,2.29-.21.05-.37.1-.51.12-.54.11-.57.02-.57-.31,0-.21,0-.31,0-.52.04-1.88.06-2.81.1-4.69,0-.88.15-.97.72-1.09,10.96-2.46,21.93-4.88,32.91-7.25.08-.02.12-.02.21-.04Z"/>
        <path class="st0" d="M321.64,32.19c.72-.14.98-.08.98,1.16,0,9.05,0,13.57,0,22.62,0,.31,3.2-.09,6.66-.73,2.38-.44,4.13-1.02,6.3-1.67.07-.02.13-.04.19-.05.51-.09.44.36.48,1.38.1,3.18.15,4.76.25,7.94,0,.08,0,.13,0,.21,0,.62-.21.71-.93.84-4.44.8-14.42,3.45-17.83,4.11-1.13.22-1.65.22-1.65-.92,0-.06,0-.09,0-.15,0-6.95.52-13.07.52-17.84,0-2.39,0-4.41-.05-6.11-.48.07-.71.11-1.19.18-.62.07-.67.08-.67-1.11.04-3.02.06-4.52.11-7.54,0-.78.15-.91.83-1.04,5.22-1.02,5.32-1.13,5.32-1.13.27-.05.4-.08.67-.13Z"/>
        <path class="st0" d="M375.28,21.98c.31-.04.36-.05.36.26-.23,11.39-.46,22.78-.68,34.17,0,.47-2.58,1.76-4.96,2.1-1.09.16-2.12,0-2.79-.84-1.81-3.52-3.1-6.12-4.34-8.68-.93-1.93-4.18-9.78-6.09-12.12-.26.4-.27,17.57-.27,24.78,0,.57.05.61-.46.7-.39.06-.59.09-.98.16-3.56.58-4.8.48-4.8-.46.05-11.13.11-22.25.16-33.38,0-.7-.02-.89.2-.92.12-.02.32,0,.63,0,2.07-.03,3.1-.04,5.17-.07,1.81-.03,3.88-.2,4.7-.33,2.69-.42,7.54,18.05,8.88,17.86.21-.03.36-5.08.36-11.31,0-4.27,0-6.41,0-10.69,0-.57-.05-.56.31-.61,1.84-.27,2.76-.39,4.6-.65Z"/>
        <path class="st0" d="M399.3,32.48c.16,1.44.21,2.88.21,4.39,0,5.81-1.14,11.84-3.05,14.53-1.96,3.07-4.65,4.87-8.11,5.29-.06,0-.09.01-.16.02-7.49.75-10.38-2.82-10.38-16.1,0-11.77,1.91-16.54,6.72-19.13.62-.33,1.5-.6,2.53-.73,2.63-.32,6.04.11,7.34,1.06,2.89,1.65,4.18,4.31,4.9,10.67ZM393.76,44.49c.83-1.65,1.19-3.61,1.19-5.53,0-1.92-.36-3.85-1.19-5.31-1.03-1.96-1.71-2.3-4.6-2.27-.62.02-1.19.04-1.71.1-3.93.48-5.01,2.71-5.01,8.93,0,6.43.88,7.91,5.22,7.38.37-.05.56-.07.93-.11,3.57-.53,4.08-.84,5.17-3.2"/>
        <path class="st0" d="M419.03,43.33c-.93.48-1.34.88-1.34,1.24,0,.36.36.75,1.19,1.26,1.5.93,2.48,4.18,2.63,7.33.08,1.88.12,2.82.2,4.71,0,.26-.05.31-.62.35-1.72.12-2.57.18-4.29.31-.62.05-.67,0-.67-.78,0-.81,0-1.21,0-2.02,0-8.92-1.72-9.09-5.99-8.74-.3.02-.23.3-.21,5.46,0,1.44-.11,1.62-1.09,1.7-2.36.25-3.53.38-5.89.66-.98.1-1.14-.35-1.14-1.7,0-.22.1-4.42.11-22.52,0-1.76.15-1.83,1.45-2.01,3.7-.45,5.55-.66,9.25-1.05.22-.02.43-.04.65-.06,8.17-.67,9.79,3.15,9.79,8.16,0,4.82-1.19,6.19-4.03,7.69ZM411.49,41.95c3.62-.31,6.87-2.1,6.87-4.9,0-3.53-2.89-3.37-7.08-3.02-1.08.09-1.61.14-2.69.24-.67.06-.67.11-.67.99,0,2.43,0,3.64,0,6.07,0,.83.31.9.62.88,1.18-.11,1.77-.16,2.95-.26"/>
        <path class="st0" d="M443.75,23.02c-.7-.14-7.3.08-9.42.17-2.16.1-2.82.18-2.82.29,0,4.15-.05,14.42-.06,20.33,0,2.96,0,5.86.05,8.35-.05,1.25-.2,1.36-.81,1.39-1.59.08-2.39.13-3.98.22-.55.03-.7-.06-.75-1.3-.01-9.56-.03-19.12-.04-28.68-6.57.39-9.85.64-16.42,1.22-.65.06-.6-.26-.65-1.39-.1-2.85-.15-4.28-.25-7.14-.05-.82.15-.89.91-.96,3.88-.34,14.41-1.01,18.03-1.16,3.83-.27,12.34-.73,16.22-.83.76-.02.96.03.91.86-.1,2.87-.15,4.3-.25,7.16-.05,1.14,0,1.45-.66,1.47Z"/>
        <path class="st0" d="M450.76,24.6c.31,0,.31.05.31.51,0,2.63,0,3.95,0,6.59,0,.31,0,.36-2.53.4-2.07.03-5.68-.05-10.54.13-.31.01-.46,1.05-.46,2.04,0,.93.15,1.81.36,1.8,4.79-.18,7.19-.24,11.99-.3.78-.01.57,0,.57.51-.06,2.12-.09,3.18-.16,5.29,0,.69.04.73-.66.74-.09,0-.2,0-.32,0-4.57.17-6.85.28-11.42.55-.1,0-.26.89-.26,1.72,0,.67.05,1.24.36,1.23.93.07,1.91.09,3,.06,2.22-.07,6.1-.26,8.83-.35q.57,0,.57.46c-.02,2.53-.03,3.8-.05,6.33,0,.62-1.81.65-2.01.65-.08,0-.12,0-.21,0-5.27.03-7.9.07-13.17.24-.13,0-.24.01-.33.02-.48.02-.44-.02-.44-.5,0-6.74-.15-13.53-.15-19.44,0-2.65.05-4.72.11-7,0-.38,0-.42.26-.43.06,0,.13,0,.21,0,6.47-.59,9.7-.84,16.17-1.23Z"/>
      </g>
      <g>
        <path class="st2" d="M85.58,72.21c.77-.04.98,0,.93.83-.1,3.26-.16,4.89-.26,8.16-.05,1.14,0,1.45-.67,1.49-.72-.12-2.84-.02-5.01.07-2.22.09-2.89.16-2.89.26,0,4.15-.05,10.32-.06,16.24,0,2.95,0,5.86.05,8.35-.05,1.25-.21,1.36-.83,1.38-.21,0-.31,0-.52.02-.41.01-.62-.03-.72-.03-.16,0-2.33.12-2.74.13-.23,0-.34,0-.57.01-.57.01-.73-.1-.77-1.33,0-.1-.05-2.02-.05-24.58-2.89.06-4.34.08-7.23.1-.67,0-.62-.31-.67-1.45-.1-3.26-.15-4.89-.25-8.14-.05-.83.15-.88.93-.89,3.98-.02,5.63.05,9.35,0,3.93-.15,8.01-.41,11.99-.6Z"/>
        <path class="st2" d="M111.52,71.27c.67-.06.67.3.67,1.39.03,10.36.16,20.8.2,31.2,0,.52,0,.78,0,1.3,0,1.25-.21,1.37-.93,1.44-.25.02-.37.04-.62.06-2.17.2-3.46.26-3.46-.88,0-.48,0-.71,0-1.19-1.65,1.8-3.3,2.84-6.25,3.16-11.44,1.22-11.49-14.44-11-21.77,0-.54,0-.81,0-1.35-.39,0-.59,0-.98,0-.57-.02-.62-.02-.62-1.21.06-3.01.1-4.52.16-7.53,0-.78.1-.83.72-.87,2.87-.16,4.31-.25,7.18-.45.72-.05.93.04.98,1.28,0,0,.15,17.16.15,17.41,0,4.05,3.25,4.64,4.44,4.54,3.51-.28,5.22-2.25,5.22-5.93-.02-7.01-.03-10.51-.05-17.52,0-1.87.21-2.72,1.04-2.79,1.26-.11,1.89-.17,3.15-.29Z"/>
        <path class="st2" d="M137.14,83.03c.67-.09.72.21.72,1.1,0,1.97,0,2.96,0,4.93,0,12.76-6,15.11-11.84,15.79-8.32.97-10.87-3.34-11.26-16.21-.31-10.17,4.17-21.01,15.71-22.08,2.92-.27,12.3-1.86,15.6-2.34,3.15-.45,5.58-.77,6.3-.72,1.18.08,1.39.15,1.39.83-.04,2.79-.06,4.18-.11,6.96,0,.36-.41,1-1.6,1.18-2.89.44-24.18,3.69-26.25,3.93-3.46.4-5.79,5-5.79,12.06,0,6.85,1.08,8.93,6.4,8.31,2.89-.34,4.34-1.41,4.34-3.12,0-2.07-1.55-2.24-4.6-1.89-.07,0-.13.02-.18.02-.33.04-.29,0-.29-.59,0-2.37,0-3.55,0-5.91,0-.57.05-.68.52-.79,4.36-.55,6.54-.84,10.9-1.46Z"/>
        <path class="st2" d="M164.48,63.77l.15,5.63c0,.15,0,.22,0,.36,0,.83-.15.85-.72,1-.31.07-.46.11-.77.18-.04,5.42-.06,8.13-.11,13.55-.11,15.16-3.05,17.63-9.77,18.65-10.8,1.64-12.76-1.53-12.76-16.99,0-3.15,0-4.73,0-7.88,0-.62,0-.67.52-.74.17-.02.25-.03.41-.06,2.83-.45,4.25-.68,7.08-1.16.19-.03.28-.04.46-.07.31-.05.36.05.36,1.04.04,5.04.06,7.55.1,12.59,0,3.06-.26,8.51,4.49,7.78,3.88-.59,4.29-.87,4.29-9.79,0-.78-.51-21.81-.51-22.9,0-1.09.05-1.15.46-1.21.12-.02.19-.03.31-.05,6.1-.96,3.36-.38,5.17-.67.67-.11.83-.03.83.75Z"/>
        <path class="st2" d="M200.44,58.12c.67-.13,1.19-.18,1.19.6,0,1.43,0,2.15,0,3.58,0,.62-.11,1.16-.67,1.27-2.67.48-4,.71-6.66,1.18-.41.08-.93-.08-.93-1.02,0-1.1,0-1.65,0-2.75,0-.21-.05-.4-.05-.61,0-.62.21-1.07.93-1.21,2.48-.41,3.72-.62,6.2-1.04Z"/>
        <path class="st2" d="M200.38,65.44c1.08-.21,1.13.25,1.24,1.26,0,6.58,0,9.87,0,16.44,0,.73-.11.64-1.19.91-2.65.6-3.97.89-6.61,1.48-.57.11-.62-.04-.62-1.08,0-.1,0-.16,0-.26,0-3.63.21-4.34.21-8.03,0-4.3-.05-3.83-.15-8.06,0-.88,0-1.3.77-1.44,2.54-.48,3.81-.73,6.36-1.22Z"/>
        <path class="st2" d="M200.84,86.51c.36-.07.67-.03.67.54,0,9.85-.26,12.21-7.29,13.54-2.13.4-3.19.6-5.32,1-2.17.4-5.27.4-5.27-9.35,0-8.92-4.28-8.45-10.02-7.45-.31.05-.26.41-.21.76,0,3.92,0,5.88,0,9.8,0,1.45-.15,1.63-1.14,1.8-1.65.33-2.48.49-4.14.81-.06.01-.09.02-.15.03-.98.16-1.14-.28-1.14-1.63.04-10.65.11-21.39.12-32.07,0-1.76.1-1.83,1.4-2.1,3.72-.71,5.58-1.07,9.3-1.81.77-.15,1.51-.3,2.21-.42,7.24-1.29,10.76-.63,10.75,9.68,0,5.03-1.25,8.08-4.09,9.88-.92.59-1.34,1.03-1.34,1.39,0,.36.36.71,1.19,1.13,1.5.76,2.63,3.87,2.63,7.03,0,5.7.93,7.55,1.91,7.37,2.58-.48,2.38-4.7,2.38-7.4,0-1.04.1-1.11.67-1.22,2.75-.52,4.12-.79,6.87-1.32ZM178.42,79.02c3.62-.64,7.49-2.91,7.49-5.71,0-3.53-3.51-2.93-7.75-2.18-1.65.29-2.48.44-4.14.72-.67.12-.67.17-.67,1.05,0,2.43,0,3.64,0,6.07,0,.83.26.89.57.83,1.8-.31,2.7-.47,4.5-.79"/>
        <path class="st2" d="M225.65,64.26c.15,1.42.2,2.86.2,4.37,0,5.81-1.14,11.95-3.05,14.84-1.96,3.26-4.65,5.31-8.11,6.01-.06.01-.09.02-.15.03-7.49,1.36-10.38-2.08-10.38-15.36,0-11.77,1.91-16.63,6.72-19.59.62-.38,1.5-.72,2.53-.92,2.63-.53,6.05-.4,7.34.43,2.89,1.38,4.18,3.91,4.9,10.19ZM220.11,76.81c.83-1.72,1.19-3.72,1.19-5.64,0-1.92-.36-3.82-1.19-5.2-1.03-1.86-1.71-2.14-4.6-1.87-.62.07-1.19.13-1.71.24-3.93.79-5.01,3.08-5.02,9.3,0,6.43.88,7.87,5.22,6.99.37-.08.56-.11.93-.19,3.56-.82,4.08-1.19,5.17-3.64"/>
        <path class="st2" d="M239.85,65.86c11.06-2.33,13.74-1.14,13.74,6.12,0,4.67-3.26,10.76-12.82,12.77-5.27,1.11-7.08-1.63-7.59-1.52-.21.04-.26.32-.26,2.75,0,1.61-.78,1.82-2.79,2.24-.68.14-1.02.21-1.71.35-.46.1-.51.06-.51-.57,0-5.08,0-7.63,0-12.71,0-.57.05-.63.72-.77,1.26-.26,1.89-.39,3.15-.66,3.1-.65,3.98-.63,3.98,1.55,0,2.8,1.7,2.7,4.8,2.05,1.96-.41,3.51-2.09,3.51-4.22,0-3.16-1.44-3.63-5.37-2.81-3.2.67-11.21,1.93-11.21-8.03,0-7.68,3.62-12.05,10.08-13.41,8.32-1.75,10.02,2.81,10.08,2.8,0-.05-.26-.83-.26-3.11,0-.1.05-1.05.05-1.2,0-.46.21-.77.83-.9,1.61-.34,2.42-.51,4.03-.85.62-.13.72-.1.72.47,0,4.96,0,7.44,0,12.4,0,.93-.05,1.1-.41,1.18-.02,0-4.36.71-4.96.79-3.88.61-3.71.42-3.82-1.21-.14-2.08-1.6-2.2-5.42-1.4-3.1.65-4.65,2.58-4.65,4.35,0,2.28,2.38,4.33,6.1,3.54Z"/>
        <path class="st2" d="M277.73,46.94c10.39-2.19,12.55,3.24,12.55,14.86,0,8.56-1.09,13.69-12.92,16.18-1.96.41-4.86.97-9.09,1.87-.08.02-.12.03-.21.04-.26.06-.26,0-.26-.31.26-4.67.26-6.44.26-9.7,0-1.56,0-2.33,0-3.89,0-9.96-.15-15.73-.15-16.1,0-.83.05-.89.57-1,3.7-.78,5.55-1.18,9.25-1.95ZM278.5,70.69c3.1-.65,5.17-4.3,5.17-9.9,0-3.73-1.96-6.75-4.6-6.19-.36.08-1.75.32-4.65.93-.21.04-.72.36-.72,1.04.02,5.66.03,8.49.05,14.15,0,.88.63.91,1.89.65.74-.16,1.7-.41,2.87-.66"/>
        <path class="st2" d="M312.5,30.8c.36-.07.36-.02.36.55,0,3.26,0,4.89,0,8.14,0,.36,0,.46-3.15,1.09-2.53.5-6.07,1.07-12.04,2.27-.36.07-.52,1.4-.52,2.65,0,1.14.15,2.2.41,2.15,5.29-1.1,7.94-1.65,13.23-2.71.13-.03.24-.05.33-.07.56-.11.44-.05.4.54-.15,2.64-.22,3.96-.36,6.61-.05.95.1.81-1.19,1.12-4.94,1.14-7.41,1.73-12.35,2.9-.21.04-.36,3.24-.36,4.23,0,.83.1,1.53.41,1.47,1.14-.08,2.43-.29,3.77-.56,2.74-.55,5.8-1.4,9.2-2.1.1-.02.19-.04.26-.05.45-.09.41-.04.46.48.23,3.71.34,5.57.57,9.28.05.77.05.82-.26.88-.1.02-.15.03-.26.05-7.09,1.34-10.63,2.03-17.72,3.42-.12.03-.23.05-.32.07-.65.13-.61.09-.61-.55,0-.58,0-.87,0-1.45,0-6.64-.15-18.59-.15-26.16,0-.56,0-.84,0-1.4,0-1.56-.1-1.64-1.5-1.35-4.59.91-6.88,1.37-11.47,2.29-.21.05-.37.1-.51.12-.54.11-.57.02-.57-.31,0-.21,0-.31,0-.52.04-1.88.06-2.81.1-4.69,0-.88.15-.97.72-1.09,10.96-2.46,21.93-4.88,32.91-7.25.08-.02.12-.02.21-.04Z"/>
        <path class="st2" d="M321.64,32.19c.72-.14.98-.08.98,1.16,0,9.05,0,13.57,0,22.62,0,.31,3.2-.09,6.66-.73,2.38-.44,4.13-1.02,6.3-1.67.07-.02.13-.04.19-.05.51-.09.44.36.48,1.38.1,3.18.15,4.76.25,7.94,0,.08,0,.13,0,.21,0,.62-.21.71-.93.84-4.44.8-14.42,3.45-17.83,4.11-1.13.22-1.65.22-1.65-.92,0-.06,0-.09,0-.15,0-6.95.52-13.07.52-17.84,0-2.39,0-4.41-.05-6.11-.48.07-.71.11-1.19.18-.62.07-.67.08-.67-1.11.04-3.02.06-4.52.11-7.54,0-.78.15-.91.83-1.04,5.22-1.02,5.32-1.13,5.32-1.13.27-.05.4-.08.67-.13Z"/>
        <path class="st2" d="M375.28,21.98c.31-.04.36-.05.36.26-.23,11.39-.46,22.78-.68,34.17,0,.47-2.58,1.76-4.96,2.1-1.09.16-2.12,0-2.79-.84-1.81-3.52-3.1-6.12-4.34-8.68-.93-1.93-4.18-9.78-6.09-12.12-.26.4-.27,17.57-.27,24.78,0,.57.05.61-.46.7-.39.06-.59.09-.98.16-3.56.58-4.8.48-4.8-.46.05-11.13.11-22.25.16-33.38,0-.7-.02-.89.2-.92.12-.02.32,0,.63,0,2.07-.03,3.1-.04,5.17-.07,1.81-.03,3.88-.2,4.7-.33,2.69-.42,7.54,18.05,8.88,17.86.21-.03.36-5.08.36-11.31,0-4.27,0-6.41,0-10.69,0-.57-.05-.56.31-.61,1.84-.27,2.76-.39,4.6-.65Z"/>
        <path class="st2" d="M399.3,32.48c.16,1.44.21,2.88.21,4.39,0,5.81-1.14,11.84-3.05,14.53-1.96,3.07-4.65,4.87-8.11,5.29-.06,0-.09.01-.16.02-7.49.75-10.38-2.82-10.38-16.1,0-11.77,1.91-16.54,6.72-19.13.62-.33,1.5-.6,2.53-.73,2.63-.32,6.04.11,7.34,1.06,2.89,1.65,4.18,4.31,4.9,10.67ZM393.76,44.49c.83-1.65,1.19-3.61,1.19-5.53,0-1.92-.36-3.85-1.19-5.31-1.03-1.96-1.71-2.3-4.6-2.27-.62.02-1.19.04-1.71.1-3.93.48-5.01,2.71-5.01,8.93,0,6.43.88,7.91,5.22,7.38.37-.05.56-.07.93-.11,3.57-.53,4.08-.84,5.17-3.2"/>
        <path class="st2" d="M419.03,43.33c-.93.48-1.34.88-1.34,1.24,0,.36.36.75,1.19,1.26,1.5.93,2.48,4.18,2.63,7.33.08,1.88.12,2.82.2,4.71,0,.26-.05.31-.62.35-1.72.12-2.57.18-4.29.31-.62.05-.67,0-.67-.78,0-.81,0-1.21,0-2.02,0-8.92-1.72-9.09-5.99-8.74-.3.02-.23.3-.21,5.46,0,1.44-.11,1.62-1.09,1.7-2.36.25-3.53.38-5.89.66-.98.1-1.14-.35-1.14-1.7,0-.22.1-4.42.11-22.52,0-1.76.15-1.83,1.45-2.01,3.7-.45,5.55-.66,9.25-1.05.22-.02.43-.04.65-.06,8.17-.67,9.79,3.15,9.79,8.16,0,4.82-1.19,6.19-4.03,7.69ZM411.49,41.95c3.62-.31,6.87-2.1,6.87-4.9,0-3.53-2.89-3.37-7.08-3.02-1.08.09-1.61.14-2.69.24-.67.06-.67.11-.67.99,0,2.43,0,3.64,0,6.07,0,.83.31.9.62.88,1.18-.11,1.77-.16,2.95-.26"/>
        <path class="st2" d="M443.75,23.02c-.7-.14-7.3.08-9.42.17-2.16.1-2.82.18-2.82.29,0,4.15-.05,14.42-.06,20.33,0,2.96,0,5.86.05,8.35-.05,1.25-.2,1.36-.81,1.39-1.59.08-2.39.13-3.98.22-.55.03-.7-.06-.75-1.3-.01-9.56-.03-19.12-.04-28.68-6.57.39-9.85.64-16.42,1.22-.65.06-.6-.26-.65-1.39-.1-2.85-.15-4.28-.25-7.14-.05-.82.15-.89.91-.96,3.88-.34,14.41-1.01,18.03-1.16,3.83-.27,12.34-.73,16.22-.83.76-.02.96.03.91.86-.1,2.87-.15,4.3-.25,7.16-.05,1.14,0,1.45-.66,1.47Z"/>
        <path class="st2" d="M450.76,24.6c.31,0,.31.05.31.51,0,2.63,0,3.95,0,6.59,0,.31,0,.36-2.53.4-2.07.03-5.68-.05-10.54.13-.31.01-.46,1.05-.46,2.04,0,.93.15,1.81.36,1.8,4.79-.18,7.19-.24,11.99-.3.78-.01.57,0,.57.51-.06,2.12-.09,3.18-.16,5.29,0,.69.04.73-.66.74-.09,0-.2,0-.32,0-4.57.17-6.85.28-11.42.55-.1,0-.26.89-.26,1.72,0,.67.05,1.24.36,1.23.93.07,1.91.09,3,.06,2.22-.07,6.1-.26,8.83-.35q.57,0,.57.46c-.02,2.53-.03,3.8-.05,6.33,0,.62-1.81.65-2.01.65-.08,0-.12,0-.21,0-5.27.03-7.9.07-13.17.24-.13,0-.24.01-.33.02-.48.02-.44-.02-.44-.5,0-6.74-.15-13.53-.15-19.44,0-2.65.05-4.72.11-7,0-.38,0-.42.26-.43.06,0,.13,0,.21,0,6.47-.59,9.7-.84,16.17-1.23Z"/>
      </g>
    </g>
    <path class="st2" d="M450.34,52.3c2,1.98,2.99,2.97,4.99,4.98,0,.62-1.81.63-2.01.63-2-1.99-2.99-2.98-4.99-4.95.21,0,2.01-.03,2.01-.65Z"/>
  </g>
  <g>
    <path class="st2" d="M271.23,104.2c-1.62.34-2.43.51-4.04.86-.39.08-.88.23-1.05.26-.25.05-.32-.02-.32-.17,0-.48.88-.33.88-1.19v-6.81c0-.86-.88-.33-.88-.83,0-.12.08-.24.27-.28.29-.06.69-.11,1.1-.2.42-.09.85-.22,1.13-.28.19-.04.27.05.27.16,0,.5-.88.34-.88,1.2,0,2.77,0,4.16,0,6.93,0,.35.16.45.48.38.73-.16,1.1-.23,1.83-.39,1.1-.23,1.72-1.03,2.65-2.17.18-.22.27-.36.42-.39.12-.02.23.04.23.17,0,.17-.08.4-.36,1.06-.21.47-.31.71-.52,1.18-.14.32-.27.55-.48.6-.31.07-.34-.19-.73-.11Z"/>
    <path class="st2" d="M280.33,101.87c0,.21-.46.62-.92.72-.52.11-.95-.11-1.13-.81-.51.75-1.35,1.37-2.37,1.58-1.31.28-2.18-.33-2.18-1.46s.99-2.24,2.61-2.59c.56-.12,1.07-.11,1.57-.06-.01-.07-.02-.11-.03-.18-.22-1.52-.73-1.86-1.62-1.67-.58.12-1.13.58-1.62,1.17-.1.13-.18.18-.26.2-.12.02-.23-.04-.23-.19,0-.09.03-.17.13-.35.4-.71,1.36-1.47,2.3-1.67,1.7-.36,1.97.84,2.16,2.01.13.86.19,1.29.32,2.15.14.99.43,1.02,1.08,1,.14,0,.2.05.2.14ZM278.17,101.09c-.07-.49-.1-.74-.17-1.23-.51-.09-1.04-.08-1.53.02-1.17.25-1.76.92-1.76,1.73s.57,1.21,1.44,1.03c.83-.18,1.62-.86,2.01-1.55Z"/>
    <path class="st2" d="M289.54,99.07c0,.08-.04.19-.13.34-.49.79-1.6,1.53-2.59,1.74-1.69.35-3.18-.52-3.18-2.73,0-2.01,1.43-3.73,3.08-4.07,1.49-.31,2.55.66,2.55,1.94,0,.24-.07.34-.25.43-1.7.86-2.55,1.29-4.25,2.15.34,1.09,1.22,1.72,2.33,1.49.81-.17,1.49-.69,1.9-1.26.09-.14.19-.22.3-.24.12-.02.25.05.25.22ZM284.62,97.81c0,.17.01.34.03.49,1.31-.68,1.96-1.01,3.27-1.69.23-.11.29-.19.29-.41,0-.65-.64-1.37-1.62-1.16-1.1.23-1.96,1.36-1.96,2.77Z"/>
    <path class="st2" d="M296.59,98.73c0,.14-.12.25-.27.28-.34.07-.58.08-1.04.17-.45.09-.82.21-1.08.26-.17.03-.29,0-.29-.18,0-.37.6-.32.6-.76,0-.18-.16-.33-.3-.49-.45-.49-.68-.73-1.13-1.22-.49.7-.73,1.05-1.22,1.75-.16.23-.25.39-.25.55,0,.44.65.13.65.51,0,.17-.12.26-.29.29-.26.05-.61.09-.97.16-.36.08-.68.18-1.01.25-.16.03-.27,0-.27-.15,0-.39.7-.48,1.11-1.06.75-1.07,1.13-1.61,1.88-2.69-.62-.66-.93-.99-1.55-1.65-.45-.48-1.14-.34-1.14-.69,0-.14.12-.25.27-.28.34-.07.61-.09,1.05-.18.47-.1.81-.21,1.07-.26.17-.03.29,0,.29.18,0,.37-.6.32-.6.76,0,.18.16.33.3.49.37.4.56.6.94,1.01.41-.59.62-.88,1.03-1.46.16-.23.25-.39.25-.55,0-.44-.65-.13-.65-.51,0-.17.12-.26.29-.29.26-.05.61-.09.95-.16.36-.07.7-.18,1.04-.25.16-.03.27,0,.27.15,0,.39-.7.48-1.11,1.06-.68.96-1.01,1.44-1.69,2.39.7.74,1.04,1.12,1.74,1.86.45.48,1.14.34,1.14.69Z"/>
    <path class="st2" d="M301.59,96.85c0,.14-.08.3-.25.52-.47.59-1.11.94-1.73,1.07-.97.2-1.62-.2-1.62-.84,0-.27.03-1.28.03-2.18v-2.56c-.36.07-.55.11-.91.19-.21.04-.34-.02-.34-.19,0-.16.12-.27.3-.37.77-.44,1.09-1.01,1.35-2.34.05-.3.12-.45.3-.49.12-.02.21.05.21.26v2.17c.94-.19,1.4-.29,2.34-.48.13-.03.2.01.2.1s-.03.21-.04.28c-.03.14-.09.2-.21.22-.91.19-1.37.28-2.29.46,0,1.58,0,2.37,0,3.95,0,.95.38,1.18.95,1.06.6-.12.94-.56,1.18-.83.08-.09.18-.19.29-.21.14-.03.25.07.25.21Z"/>
    <path class="st2" d="M302.16,97.58c0-.47.84-.24.84-1.32,0-1.34,0-2.01,0-3.35,0-.8-.95-.13-.95-.62,0-.18.2-.37.79-.79.6-.42.73-.49.83-.51.17-.03.23.1.23.36v4.72c0,1.08.86.51.86.98,0,.1-.08.25-.23.28-.27.05-.68.1-1.08.18-.39.08-.77.19-1.04.25-.18.04-.26-.08-.26-.18ZM302.51,89.07c0-.44.43-1.04,1-1.15.34-.07.64.09.64.48,0,.44-.46,1.03-1.03,1.15-.29.06-.61-.07-.61-.48Z"/>
    <path class="st2" d="M312.82,95.46c0,.17-.14.26-.31.3-.35.07-.61.08-1.08.17-.49.1-.7.18-1.07.25-.19.04-.32-.03-.32-.18,0-.46.91-.28.91-1.13,0-.08-.01-.22-.03-.31-.14-.92-.2-1.38-.34-2.31-.09-.58-.31-1.78-1.43-1.56-.84.17-1.75,1.04-1.75,2.38v2.31c0,1.08.86.51.86.98,0,.1-.08.25-.23.28-.27.05-.68.1-1.08.18-.39.08-.77.19-1.04.25-.18.04-.26-.08-.26-.18,0-.47.84-.23.84-1.32,0-1.34,0-2.01,0-3.35,0-.8-.95-.14-.95-.62,0-.18.2-.37.79-.78.6-.42.73-.48.83-.51.17-.03.23.1.23.36v.81c.43-.76,1.08-1.47,2.05-1.66,1.62-.32,1.92,1.26,2.05,2.19.14.95.2,1.42.34,2.37.17,1.22.97.59.97,1.09Z"/>
    <path class="st2" d="M313.29,92.45c0-2.06,1.39-3.77,3.16-4.11,1.23-.24,2.29.3,2.29.78,0,.23-.1.63-.44,1.19-.1.16-.18.27-.31.3-.14.03-.22-.07-.26-.32-.18-.96-.53-1.5-1.49-1.31-1.12.22-1.95,1.42-1.95,2.99,0,1.63,1.04,2.67,2.4,2.4.65-.13,1.25-.52,1.69-1.2.1-.16.19-.25.3-.27.13-.03.23.05.23.23,0,.1-.05.23-.12.36-.4.76-1.42,1.49-2.46,1.69-1.61.31-3.04-.57-3.04-2.73Z"/>
    <path class="st2" d="M319.71,94.11c0-.47.84-.23.84-1.31v-3.35c0-.8-.95-.14-.95-.63,0-.18.2-.36.79-.78.6-.41.73-.48.83-.5.17-.03.23.1.23.36,0,1.89,0,2.83,0,4.72,0,1.08.86.52.86.99,0,.1-.08.25-.23.28-.27.05-.68.09-1.08.17-.39.07-.77.19-1.04.24-.18.03-.26-.08-.26-.18ZM320.06,85.61c0-.44.43-1.03,1-1.14.34-.06.64.1.64.49,0,.44-.46,1.03-1.03,1.14-.29.05-.61-.08-.61-.48Z"/>
    <path class="st2" d="M323.16,90.5c0-1.98,1.46-3.72,3.39-4.08,1.88-.35,3.27.76,3.27,2.78,0,1.97-1.46,3.7-3.39,4.06-1.89.35-3.28-.75-3.28-2.76ZM328.85,89.82c0-1.75-1.07-3.03-2.55-2.75-1.33.25-2.17,1.48-2.17,2.8,0,1.74,1.07,3.01,2.55,2.73,1.33-.25,2.17-1.47,2.17-2.78ZM325.95,85.57c0-.08.03-.17.1-.33.4-.79.7-1.34,1.03-1.89.13-.21.22-.28.48-.33.35-.07.49-.07.49.12,0,.12-.12.32-.36.67-.17.24-.83,1.17-1.08,1.52-.2.29-.31.33-.44.36-.12.02-.22-.01-.22-.11Z"/>
    <path class="st2" d="M337.97,90.73c0,.17-.14.26-.31.29-.35.06-.61.07-1.08.15-.49.09-.7.17-1.07.23-.19.04-.32-.03-.32-.19,0-.46.91-.27.91-1.12,0-.08-.01-.22-.03-.31-.14-.93-.2-1.39-.34-2.31-.09-.58-.31-1.78-1.43-1.58-.84.15-1.75,1.01-1.75,2.35v2.31c0,1.08.86.52.86.99,0,.1-.08.25-.23.28-.27.05-.68.08-1.08.16-.39.07-.77.18-1.04.23-.18.03-.26-.08-.26-.19,0-.47.84-.22.84-1.3,0-1.34,0-2.01,0-3.35,0-.8-.95-.15-.95-.64,0-.18.2-.36.79-.77.6-.41.73-.47.83-.49.17-.03.23.1.23.36v.81c.43-.76,1.08-1.45,2.05-1.63,1.62-.29,1.92,1.3,2.05,2.23.14.95.2,1.43.34,2.38.17,1.22.97.61.97,1.11Z"/>
    <path class="st2" d="M348.85,88.36c0,.2-.21.36-.86.71-.57.3-.72.37-.81.38-.23.04-.23-.23-.23-.37v-.74c-.48.79-1.29,1.39-2.31,1.57-1.56.27-2.95-.7-2.95-2.75s1.38-3.69,3.17-3.99c.92-.16,1.62.07,2.09.46v-2.34c0-.8-1.07-.13-1.07-.64,0-.18.21-.35.84-.76.56-.36.82-.48.9-.49.18-.03.23.14.23.36v7.8c0,.78.99.32.99.79ZM346.95,86.74v-.95c0-1.54-1.22-2.18-2.2-2.01-1.35.23-2.11,1.51-2.11,2.89,0,1.81,1.18,2.64,2.3,2.45.92-.16,2-.97,2-2.38Z"/>
    <path class="st2" d="M355.47,86.65c0,.08-.04.19-.13.33-.49.77-1.6,1.46-2.59,1.62-1.69.28-3.18-.66-3.18-2.86,0-2.01,1.43-3.67,3.08-3.94,1.49-.25,2.55.77,2.55,2.05,0,.24-.07.34-.25.42-1.7.78-2.55,1.17-4.25,1.96.34,1.1,1.22,1.77,2.33,1.59.81-.13,1.49-.62,1.9-1.17.09-.13.19-.21.3-.23.12-.02.25.06.25.23ZM350.55,85.18c0,.17.01.34.03.49,1.31-.62,1.96-.93,3.27-1.54.23-.1.29-.18.29-.4,0-.65-.64-1.4-1.62-1.24-1.1.18-1.96,1.28-1.96,2.69Z"/>
    <path class="st2" d="M359.43,87.12c0-.47.85-.2.85-1.28,0-2.69,0-4.03,0-6.72,0-.8-.95-.18-.95-.66,0-.18.19-.36.79-.75.6-.39.73-.45.83-.47.17-.03.23.11.23.37v8.09c0,1.08.86.55.86,1.02,0,.1-.08.25-.23.27-.27.04-.68.07-1.08.13-.39.06-.77.16-1.04.2-.18.03-.26-.09-.26-.19Z"/>
    <path class="st2" d="M369.42,85.39c0,.21-.46.59-.92.66-.52.08-.95-.17-1.13-.88-.51.71-1.35,1.28-2.37,1.44-1.31.2-2.18-.46-2.18-1.59,0-1.13.99-2.19,2.61-2.43.56-.08,1.07-.04,1.57.04-.01-.07-.02-.11-.03-.18-.22-1.53-.73-1.9-1.62-1.77-.58.09-1.13.51-1.62,1.07-.1.12-.18.17-.26.18-.12.02-.23-.06-.23-.2,0-.09.03-.17.13-.35.4-.69,1.36-1.39,2.3-1.53,1.7-.26,1.97.96,2.16,2.14.13.87.19,1.3.32,2.17.14,1,.43,1.05,1.08,1.07.14,0,.2.06.2.16ZM367.26,84.48c-.07-.5-.1-.74-.17-1.24-.51-.12-1.04-.15-1.53-.07-1.17.18-1.76.81-1.76,1.62s.57,1.24,1.44,1.11c.83-.13,1.62-.77,2.01-1.42Z"/>
    <path class="st2" d="M372.64,85.15c0-.47.85-.18.85-1.27,0-2.69,0-4.03,0-6.72,0-.8-.95-.19-.95-.67,0-.18.19-.35.79-.74.6-.38.73-.44.83-.46.17-.02.23.11.23.37v8.09c0,1.08.86.56.86,1.03,0,.1-.08.25-.23.27-.27.04-.68.05-1.08.11-.39.05-.77.15-1.04.19-.18.03-.26-.09-.26-.2Z"/>
    <path class="st2" d="M381.98,82.78c0,.08-.04.19-.13.33-.49.76-1.6,1.41-2.59,1.54-1.69.23-3.18-.76-3.18-2.96,0-2.01,1.43-3.63,3.08-3.85,1.49-.2,2.55.85,2.55,2.13,0,.24-.07.33-.25.41-1.7.73-2.55,1.09-4.25,1.83.34,1.12,1.22,1.8,2.33,1.66.81-.11,1.49-.58,1.9-1.11.09-.13.19-.21.3-.22.12-.02.25.07.25.24ZM377.05,81.15c0,.17.01.34.03.49,1.31-.58,1.96-.87,3.27-1.44.23-.1.29-.17.29-.39,0-.65-.64-1.42-1.62-1.29-1.1.15-1.96,1.22-1.96,2.63Z"/>
    <path class="st2" d="M389.22,76.96c0,.39-.69.36-.95,1.03-1,2.5-1.5,3.75-2.51,6.26-.48,1.21-1.16,1.97-2.05,2.08-.36.05-.72-.03-.83-.17-.17-.21-.36-.96-.36-1.25,0-.17.08-.32.23-.34.14-.02.21.05.31.21.34.52.64.77.95.73.44-.06.88-.62,1.26-1.59.05-.13.07-.19.12-.31-.9-1.98-1.36-2.97-2.26-4.95-.27-.63-.95-.43-.95-.82,0-.14.12-.22.27-.24.34-.04.66-.05,1.17-.11.43-.05.79-.14,1.05-.17.17-.02.29.03.29.2,0,.42-.79.33-.79.93,0,.08.05.35.19.67.6,1.35.9,2.03,1.51,3.39.58-1.5.87-2.25,1.44-3.75.13-.36.22-.59.22-.77,0-.54-.83-.26-.83-.68,0-.17.12-.25.29-.27.26-.03.61-.04.95-.08.36-.04.68-.12,1.01-.16.16-.02.27.03.27.18Z"/>
    <path class="st2" d="M395.35,81.17c0,.08-.04.19-.13.33-.49.75-1.6,1.38-2.59,1.49-1.69.19-3.18-.82-3.18-3.02,0-2.01,1.43-3.6,3.08-3.79,1.49-.17,2.55.9,2.55,2.18,0,.24-.07.33-.25.41-1.7.7-2.55,1.05-4.25,1.75.34,1.12,1.22,1.83,2.33,1.7.81-.09,1.49-.55,1.9-1.08.09-.13.19-.2.3-.22.12-.01.25.08.25.25ZM390.43,79.45c0,.17.01.34.03.49,1.31-.56,1.96-.83,3.27-1.38.23-.09.29-.16.29-.38,0-.65-.64-1.43-1.62-1.32-1.1.13-1.96,1.18-1.96,2.59Z"/>
    <path class="st2" d="M403.37,81.43c0,.17-.14.25-.31.27-.35.03-.61.02-1.08.07-.49.05-.7.11-1.07.15-.19.02-.32-.06-.32-.21,0-.46.91-.2.91-1.05,0-.08-.01-.22-.03-.31-.14-.94-.2-1.4-.34-2.34-.09-.59-.31-1.81-1.43-1.69-.84.09-1.75.88-1.75,2.22v2.31c0,1.08.86.59.86,1.06,0,.1-.08.24-.23.26-.27.03-.68.03-1.08.08-.39.04-.77.12-1.04.15-.18.02-.26-.1-.26-.21,0-.47.84-.16.84-1.24v-3.35c0-.8-.95-.22-.95-.71,0-.18.2-.35.79-.71.6-.36.73-.42.83-.43.17-.02.23.12.23.38v.81c.43-.72,1.08-1.37,2.05-1.47,1.62-.17,1.92,1.45,2.05,2.39.14.96.2,1.44.34,2.41.17,1.24.97.69.97,1.18Z"/>
    <path class="st2" d="M411,80.25c0,.2-.21.34-.86.64-.57.26-.72.31-.81.32-.23.02-.23-.25-.23-.38v-.74c-.48.75-1.29,1.29-2.31,1.38-1.56.14-2.95-.93-2.95-2.98s1.38-3.58,3.17-3.74c.92-.09,1.62.2,2.09.63v-2.34c0-.8-1.07-.22-1.07-.73,0-.18.21-.33.84-.69.56-.31.82-.41.9-.42.18-.02.23.16.23.38,0,3.12,0,4.68,0,7.8,0,.78.99.4.99.87ZM409.1,78.47v-.95c0-1.54-1.22-2.28-2.2-2.19-1.35.13-2.11,1.35-2.11,2.73,0,1.81,1.18,2.73,2.3,2.63.92-.09,2-.81,2-2.22Z"/>
    <path class="st2" d="M418.26,79.93c0,.21-.46.56-.92.59-.52.04-.95-.24-1.13-.96-.51.68-1.35,1.19-2.37,1.27-1.31.11-2.18-.61-2.18-1.74s.99-2.12,2.61-2.25c.56-.04,1.07.03,1.57.15-.01-.07-.02-.11-.03-.18-.22-1.55-.73-1.95-1.62-1.88-.58.05-1.13.43-1.62.96-.1.11-.18.16-.26.17-.12,0-.23-.07-.23-.22,0-.09.03-.17.13-.34.4-.66,1.36-1.3,2.3-1.38,1.7-.14,1.97,1.1,2.16,2.3.13.88.19,1.32.32,2.19.14,1.01.43,1.08,1.08,1.14.14.02.2.08.2.17ZM416.1,78.86c-.07-.5-.1-.75-.17-1.25-.51-.16-1.04-.22-1.53-.18-1.17.09-1.76.69-1.76,1.5s.57,1.28,1.44,1.21c.83-.07,1.62-.65,2.01-1.28Z"/>
    <path class="st2" d="M428.78,79.47c0,.17-.14.24-.31.25-.35.02-.61,0-1.08.02-.49.03-.7.08-1.07.1-.19.01-.32-.07-.32-.23,0-.46.91-.16.91-1.01,0-.08-.01-.22-.03-.31-.14-.94-.2-1.41-.34-2.35-.09-.6-.31-1.82-1.43-1.75-.84.05-1.75.8-1.75,2.15v2.31c0,1.08.86.62.86,1.09,0,.1-.08.24-.23.25-.27.02-.68,0-1.08.03-.39.03-.77.09-1.04.11-.18.01-.26-.11-.26-.22,0-.47.84-.12.84-1.21v-3.35c0-.8-.95-.26-.95-.75,0-.18.2-.34.79-.68.6-.34.73-.39.83-.39.17-.01.23.13.23.39v.81c.43-.71,1.08-1.32,2.05-1.38,1.62-.1,1.92,1.53,2.05,2.47.14.97.2,1.45.34,2.42.17,1.24.97.73.97,1.23Z"/>
    <path class="st2" d="M435.15,78.07c0,.08-.04.18-.13.32-.49.71-1.6,1.27-2.59,1.32-1.69.08-3.18-1.03-3.18-3.23,0-2.01,1.43-3.51,3.08-3.59,1.49-.07,2.55,1.07,2.55,2.35,0,.24-.07.33-.25.39-1.7.58-2.55.87-4.25,1.47.34,1.14,1.22,1.91,2.33,1.86.81-.04,1.49-.45,1.9-.95.09-.12.19-.19.3-.2.12,0,.25.09.25.26ZM430.23,76.02c0,.17.01.34.03.49,1.31-.47,1.96-.7,3.27-1.16.23-.08.29-.14.29-.37,0-.65-.64-1.47-1.62-1.43-1.1.05-1.96,1.05-1.96,2.46Z"/>
    <path class="st2" d="M442.54,79.54c0,1.16-1.38,2.05-3.35,2.12-1.94.07-3.34-.54-3.34-1.54,0-.56.42-1.1,1.09-1.45-.55-.14-.78-.49-.78-.87,0-.47.48-.88.91-1.17-.58-.34-.94-.89-.94-1.61,0-1.24,1.04-2.31,2.89-2.38.22,0,.44,0,.64.02.2-1.13.87-1.62,1.22-1.63.36-.01.65.08.96.25.14.07.27.17.27.32s-.1.25-.35.26c-.69.02-1.38.11-1.57.91.97.27,1.61.93,1.61,1.89,0,1.21-1.03,2.28-2.89,2.35-.48.02-.92-.03-1.31-.15-.27.18-.55.35-.55.62,0,.22.18.31.65.35,1.17.12,2.52.2,2.86.23,1.29.09,1.97.63,1.97,1.49ZM441.62,79.8c0-.51-.47-.8-1.43-.87-.89-.06-1.68-.13-2.47-.19-.46.23-.86.65-.86,1.21,0,.78.83,1.17,2.38,1.11,1.43-.05,2.38-.68,2.38-1.26ZM437.14,74.83c0,.99.79,1.61,1.88,1.57,1.03-.04,1.77-.63,1.77-1.6s-.79-1.62-1.88-1.58c-1.03.04-1.77.65-1.77,1.6Z"/>
    <path class="st2" d="M447.94,72.95c0,.16-.04.43-.17.97-.05.21-.13.34-.3.34-.17,0-.22-.14-.3-.35-.14-.38-.3-.54-.55-.54-.65.01-1.82,1.15-1.82,3.07v1.25c0,1.08,1.03.62,1.03,1.13,0,.1-.08.24-.23.24-.31,0-.79-.02-1.25-.01-.39,0-.77.06-1.04.07-.18,0-.26-.12-.26-.23,0-.47.84-.09.84-1.17v-3.35c0-.8-.95-.3-.95-.78,0-.18.2-.33.79-.65.6-.32.73-.36.83-.36.17,0,.23.14.23.4v1.4c.47-1.15,1.39-1.88,2.3-1.9.49,0,.83.21.83.48Z"/>
    <path class="st2" d="M454.92,78.49c0,.21-.46.52-.92.52-.52,0-.95-.31-1.13-1.04-.51.64-1.35,1.09-2.37,1.11-1.31.02-2.18-.77-2.18-1.89s.99-2.05,2.61-2.07c.56,0,1.07.11,1.57.26-.01-.07-.02-.11-.03-.18-.22-1.56-.73-2-1.62-1.99-.58,0-1.13.35-1.62.84-.1.11-.18.15-.26.15-.12,0-.23-.09-.23-.23,0-.09.03-.17.13-.33.4-.63,1.36-1.21,2.3-1.22,1.7-.02,1.97,1.24,2.16,2.45.13.89.19,1.33.32,2.22.14,1.02.43,1.11,1.08,1.22.14.03.2.09.2.18ZM452.76,77.27c-.07-.51-.1-.76-.17-1.26-.51-.19-1.04-.29-1.53-.29-1.17.01-1.76.57-1.76,1.38s.57,1.32,1.44,1.31c.83,0,1.62-.54,2.01-1.14Z"/>
  </g>
  <g>
    <path class="st2" d="M64.93,59.03c0-3.45,2.32-6.01,5.17-6.06,1.11-.02,1.91.32,2.23.32.31,0,.28-.42.6-.42.23,0,.36.18.61.77.19.45.28.68.47,1.14.3.73.44.88.44,1.15,0,.22-.17.33-.3.34-.16,0-.3-.12-.49-.35-1.16-1.43-2.19-2.13-3.45-2.11-2.24.04-3.93,2.18-3.93,4.98s1.65,4.86,4.14,4.82c1.38-.03,2.63-.72,3.48-1.98.08-.11.17-.27.39-.28.17,0,.34.12.34.37,0,.13-.05.28-.16.48-.56,1.02-2.16,2.37-4.33,2.41-2.71.05-5.22-1.98-5.22-5.56Z"/>
    <path class="st2" d="M81.58,56.7c0,.19-.05.52-.2,1.17-.06.25-.16.42-.36.42-.2,0-.27-.16-.36-.41-.17-.45-.36-.65-.66-.64-.78.03-2.19,1.42-2.19,3.73v1.51c0,1.31,1.24.73,1.24,1.34,0,.13-.09.29-.28.29-.38.01-.96-.01-1.5,0-.47.02-.92.08-1.25.09-.22,0-.31-.15-.31-.27,0-.57,1.02-.11,1.02-1.42v-4.04c0-.96-1.14-.36-1.14-.94,0-.22.23-.4.96-.78.72-.38.88-.44,1-.44.2,0,.28.16.28.48v1.68c.56-1.39,1.68-2.29,2.77-2.34.6-.02,1,.23,1,.56Z"/>
    <path class="st2" d="M82.14,60.13c0-2.39,1.76-4.23,4.09-4.34,2.27-.11,3.95,1.44,3.95,3.88s-1.76,4.24-4.09,4.36c-2.27.11-3.95-1.47-3.95-3.89ZM89.01,60.27c0-2.11-1.29-3.81-3.07-3.72-1.6.08-2.62,1.41-2.62,3,0,2.09,1.29,3.81,3.07,3.72,1.6-.08,2.62-1.43,2.62-3ZM85.51,54.68c0-.09.03-.21.13-.38.49-.89.85-1.51,1.24-2.11.16-.23.27-.3.58-.31.42-.02.6,0,.6.22,0,.14-.14.37-.44.75-.2.26-1,1.27-1.3,1.66-.24.31-.38.35-.53.36-.14,0-.27-.05-.27-.18Z"/>
    <path class="st2" d="M100.01,62.65c0,.2-.17.3-.38.31-.42.03-.74,0-1.3.05-.6.04-.85.11-1.29.14-.23.02-.39-.08-.39-.27,0-.55,1.1-.2,1.1-1.23,0-.09-.02-.27-.03-.38-.16-1.13-.24-1.7-.41-2.83-.11-.72-.38-2.19-1.72-2.1-1.02.07-2.12.97-2.12,2.59v2.78c0,1.31,1.03.75,1.03,1.32,0,.13-.09.29-.28.3-.33.02-.82,0-1.3.04-.47.03-.92.1-1.25.12-.22.01-.31-.14-.31-.26,0-.57,1.02-.14,1.02-1.45v-4.04c0-.96-1.14-.32-1.14-.91,0-.22.23-.41.96-.81s.88-.46,1-.47c.2-.01.28.16.28.47v.98c.52-.85,1.3-1.59,2.48-1.67,1.96-.13,2.32,1.82,2.48,2.96.16,1.16.24,1.75.41,2.91.2,1.5,1.18.86,1.18,1.45Z"/>
    <path class="st2" d="M100.62,62.6c0-.57,1.02-.16,1.02-1.46v-4.04c0-.96-1.14-.31-1.14-.89,0-.22.23-.41.96-.83s.88-.48,1-.49c.2-.02.28.15.28.47v5.7c0,1.31,1.03.73,1.03,1.3,0,.13-.09.29-.28.31-.33.03-.82.02-1.3.06-.47.04-.92.12-1.25.14-.22.02-.31-.13-.31-.26ZM101.05,52.39c0-.53.52-1.19,1.21-1.24.41-.03.77.21.77.68,0,.54-.55,1.18-1.24,1.23-.34.03-.74-.18-.74-.67Z"/>
    <path class="st2" d="M104.79,58.76c0-2.49,1.68-4.35,3.81-4.55,1.49-.13,2.76.64,2.76,1.23,0,.28-.13.75-.53,1.39-.13.18-.22.3-.38.32-.17.02-.27-.12-.31-.41-.22-1.18-.64-1.88-1.8-1.77-1.35.12-2.35,1.46-2.35,3.35s1.25,3.36,2.9,3.21c.78-.07,1.5-.47,2.04-1.24.13-.19.23-.27.36-.29.16-.01.28.08.28.3,0,.13-.06.27-.14.42-.49.86-1.71,1.62-2.96,1.74-1.94.17-3.67-1.08-3.67-3.7Z"/>
    <path class="st2" d="M120.37,60.51c0,.25-.55.69-1.11.75-.63.07-1.14-.26-1.36-1.12-.61.83-1.63,1.47-2.85,1.6-1.58.16-2.63-.7-2.63-2.05s1.19-2.57,3.15-2.76c.67-.07,1.29.01,1.9.14-.01-.09-.02-.13-.03-.22-.27-1.86-.88-2.33-1.96-2.22-.7.07-1.36.55-1.96,1.19-.13.14-.22.19-.31.2-.14.01-.28-.08-.28-.26,0-.11.03-.21.16-.41.49-.8,1.65-1.59,2.77-1.71,2.05-.21,2.38,1.26,2.6,2.7.16,1.05.23,1.58.39,2.63.17,1.21.52,1.28,1.3,1.34.17.01.23.08.23.19ZM117.77,59.31c-.08-.6-.12-.9-.2-1.5-.61-.17-1.25-.23-1.85-.17-1.41.14-2.12.87-2.12,1.85s.69,1.54,1.74,1.43c1-.1,1.96-.83,2.43-1.6Z"/>
  </g>
</svg>